<svg width="147" height="19" viewBox="0 0 147 19" fill="none" xmlns="http://www.w3.org/2000/svg">
<path d="M7.125 0.449999C8.975 0.449999 10.5917 0.816666 11.975 1.55C13.3583 2.28333 14.425 3.31667 15.175 4.65C15.9417 5.96667 16.325 7.49167 16.325 9.225C16.325 10.9417 15.9417 12.4667 15.175 13.8C14.425 15.1333 13.35 16.1667 11.95 16.9C10.5667 17.6333 8.95833 18 7.125 18H0.55V0.449999H7.125ZM6.85 14.3C8.46667 14.3 9.725 13.8583 10.625 12.975C11.525 12.0917 11.975 10.8417 11.975 9.225C11.975 7.60833 11.525 6.35 10.625 5.45C9.725 4.55 8.46667 4.1 6.85 4.1H4.825V14.3H6.85ZM22.9891 6.375C23.4891 5.60833 24.1141 5.00833 24.8641 4.575C25.6141 4.125 26.4474 3.9 27.3641 3.9V8.425H26.1891C25.1224 8.425 24.3224 8.65833 23.7891 9.125C23.2557 9.575 22.9891 10.375 22.9891 11.525V18H18.7141V4.05H22.9891V6.375ZM42.5574 10.8C42.5574 11.2 42.5324 11.6167 42.4824 12.05H32.8074C32.8741 12.9167 33.1491 13.5833 33.6324 14.05C34.1324 14.5 34.7408 14.725 35.4574 14.725C36.5241 14.725 37.2658 14.275 37.6824 13.375H42.2324C41.9991 14.2917 41.5741 15.1167 40.9574 15.85C40.3574 16.5833 39.5991 17.1583 38.6824 17.575C37.7658 17.9917 36.7408 18.2 35.6074 18.2C34.2408 18.2 33.0241 17.9083 31.9574 17.325C30.8908 16.7417 30.0574 15.9083 29.4574 14.825C28.8574 13.7417 28.5574 12.475 28.5574 11.025C28.5574 9.575 28.8491 8.30833 29.4324 7.225C30.0324 6.14167 30.8658 5.30833 31.9324 4.725C32.9991 4.14167 34.2241 3.85 35.6074 3.85C36.9574 3.85 38.1574 4.13333 39.2074 4.7C40.2574 5.26667 41.0741 6.075 41.6574 7.125C42.2574 8.175 42.5574 9.4 42.5574 10.8ZM38.1824 9.675C38.1824 8.94167 37.9324 8.35833 37.4324 7.925C36.9324 7.49167 36.3074 7.275 35.5574 7.275C34.8408 7.275 34.2324 7.48333 33.7324 7.9C33.2491 8.31667 32.9491 8.90833 32.8324 9.675H38.1824ZM43.9627 11C43.9627 9.56667 44.2294 8.30833 44.7627 7.225C45.3127 6.14167 46.0544 5.30833 46.9877 4.725C47.921 4.14167 48.9627 3.85 50.1127 3.85C51.096 3.85 51.9544 4.05 52.6877 4.45C53.4377 4.85 54.0127 5.375 54.4127 6.025V4.05H58.6877V18H54.4127V16.025C53.996 16.675 53.4127 17.2 52.6627 17.6C51.9294 18 51.071 18.2 50.0877 18.2C48.9544 18.2 47.921 17.9083 46.9877 17.325C46.0544 16.725 45.3127 15.8833 44.7627 14.8C44.2294 13.7 43.9627 12.4333 43.9627 11ZM54.4127 11.025C54.4127 9.95833 54.1127 9.11667 53.5127 8.5C52.9294 7.88333 52.2127 7.575 51.3627 7.575C50.5127 7.575 49.7877 7.88333 49.1877 8.5C48.6044 9.1 48.3127 9.93333 48.3127 11C48.3127 12.0667 48.6044 12.9167 49.1877 13.55C49.7877 14.1667 50.5127 14.475 51.3627 14.475C52.2127 14.475 52.9294 14.1667 53.5127 13.55C54.1127 12.9333 54.4127 12.0917 54.4127 11.025ZM79.5805 3.9C81.3138 3.9 82.6888 4.425 83.7055 5.475C84.7388 6.525 85.2555 7.98333 85.2555 9.85V18H81.0055V10.425C81.0055 9.525 80.7638 8.83333 80.2805 8.35C79.8138 7.85 79.1638 7.6 78.3305 7.6C77.4971 7.6 76.8388 7.85 76.3555 8.35C75.8888 8.83333 75.6555 9.525 75.6555 10.425V18H71.4055V10.425C71.4055 9.525 71.1638 8.83333 70.6805 8.35C70.2138 7.85 69.5638 7.6 68.7305 7.6C67.8971 7.6 67.2388 7.85 66.7555 8.35C66.2888 8.83333 66.0555 9.525 66.0555 10.425V18H61.7805V4.05H66.0555V5.8C66.4888 5.21667 67.0555 4.75833 67.7555 4.425C68.4555 4.075 69.2471 3.9 70.1305 3.9C71.1805 3.9 72.1138 4.125 72.9305 4.575C73.7638 5.025 74.4138 5.66667 74.8805 6.5C75.3638 5.73333 76.0221 5.10833 76.8555 4.625C77.6888 4.14167 78.5971 3.9 79.5805 3.9ZM108.12 0.449999V18H103.845V7.475L99.9203 18H96.4703L92.5203 7.45V18H88.2453V0.449999H93.2953L98.2203 12.6L103.095 0.449999H108.12ZM110.345 11C110.345 9.56667 110.611 8.30833 111.145 7.225C111.695 6.14167 112.436 5.30833 113.37 4.725C114.303 4.14167 115.345 3.85 116.495 3.85C117.478 3.85 118.336 4.05 119.07 4.45C119.82 4.85 120.395 5.375 120.795 6.025V4.05H125.07V18H120.795V16.025C120.378 16.675 119.795 17.2 119.045 17.6C118.311 18 117.453 18.2 116.47 18.2C115.336 18.2 114.303 17.9083 113.37 17.325C112.436 16.725 111.695 15.8833 111.145 14.8C110.611 13.7 110.345 12.4333 110.345 11ZM120.795 11.025C120.795 9.95833 120.495 9.11667 119.895 8.5C119.311 7.88333 118.595 7.575 117.745 7.575C116.895 7.575 116.17 7.88333 115.57 8.5C114.986 9.1 114.695 9.93333 114.695 11C114.695 12.0667 114.986 12.9167 115.57 13.55C116.17 14.1667 116.895 14.475 117.745 14.475C118.595 14.475 119.311 14.1667 119.895 13.55C120.495 12.9333 120.795 12.0917 120.795 11.025ZM132.437 6.375C132.937 5.60833 133.562 5.00833 134.312 4.575C135.062 4.125 135.896 3.9 136.812 3.9V8.425H135.637C134.571 8.425 133.771 8.65833 133.237 9.125C132.704 9.575 132.437 10.375 132.437 11.525V18H128.162V4.05H132.437V6.375ZM146.631 14.375V18H144.456C142.906 18 141.697 17.625 140.831 16.875C139.964 16.1083 139.531 14.8667 139.531 13.15V7.6H137.831V4.05H139.531V0.65H143.806V4.05H146.606V7.6H143.806V13.2C143.806 13.6167 143.906 13.9167 144.106 14.1C144.306 14.2833 144.639 14.375 145.106 14.375H146.631Z" fill="#06BEE1"/>
</svg>
