<svg width="24" height="24" viewBox="0 0 24 24" fill="none" xmlns="http://www.w3.org/2000/svg">
<path d="M1 4C1 3.20435 1.31607 2.44129 1.87868 1.87868C2.44129 1.31607 3.20435 1 4 1H7C7.79565 1 8.55871 1.31607 9.12132 1.87868C9.68393 2.44129 10 3.20435 10 4V7C10 7.79565 9.68393 8.55871 9.12132 9.12132C8.55871 9.68393 7.79565 10 7 10H4C3.20435 10 2.44129 9.68393 1.87868 9.12132C1.31607 8.55871 1 7.79565 1 7V4ZM1 17C1 16.2044 1.31607 15.4413 1.87868 14.8787C2.44129 14.3161 3.20435 14 4 14H7C7.79565 14 8.55871 14.3161 9.12132 14.8787C9.68393 15.4413 10 16.2044 10 17V20C10 20.7957 9.68393 21.5587 9.12132 22.1213C8.55871 22.6839 7.79565 23 7 23H4C3.20435 23 2.44129 22.6839 1.87868 22.1213C1.31607 21.5587 1 20.7957 1 20V17ZM14 4C14 3.20435 14.3161 2.44129 14.8787 1.87868C15.4413 1.31607 16.2044 1 17 1H20C20.7957 1 21.5587 1.31607 22.1213 1.87868C22.6839 2.44129 23 3.20435 23 4V7C23 7.79565 22.6839 8.55871 22.1213 9.12132C21.5587 9.68393 20.7957 10 20 10H17C16.2044 10 15.4413 9.68393 14.8787 9.12132C14.3161 8.55871 14 7.79565 14 7V4ZM14 17C14 16.2044 14.3161 15.4413 14.8787 14.8787C15.4413 14.3161 16.2044 14 17 14H20C20.7957 14 21.5587 14.3161 22.1213 14.8787C22.6839 15.4413 23 16.2044 23 17V20C23 20.7957 22.6839 21.5587 22.1213 22.1213C21.5587 22.6839 20.7957 23 20 23H17C16.2044 23 15.4413 22.6839 14.8787 22.1213C14.3161 21.5587 14 20.7957 14 20V17Z" stroke="#292929" stroke-width="2" stroke-linecap="round" stroke-linejoin="round"/>
</svg>
