<?xml version="1.0" encoding="utf-8"?><!-- Uploaded to: SVG Repo, www.svgrepo.com, Generator: SVG Repo Mixer Tools -->
<svg width="800px" height="800px" viewBox="0 0 64 64" fill="none" xmlns="http://www.w3.org/2000/svg">
<path d="M52.19 33.8809V56.1609C52.19 56.6913 51.9793 57.2 51.6042 57.5751C51.2291 57.9501 50.7204 58.1609 50.19 58.1609C49.6596 58.1609 49.1509 57.9501 48.7758 57.5751C48.4007 57.2 48.19 56.6913 48.19 56.1609V33.8809C49.4972 34.2542 50.8828 34.2542 52.19 33.8809Z" fill="#000000"/>
<path d="M52.19 8.16113V19.7711C50.8828 19.3978 49.4972 19.3978 48.19 19.7711V8.16113C48.19 7.6307 48.4007 7.12199 48.7758 6.74692C49.1509 6.37184 49.6596 6.16113 50.19 6.16113C50.7204 6.16113 51.2291 6.37184 51.6042 6.74692C51.9793 7.12199 52.19 7.6307 52.19 8.16113Z" fill="#000000"/>
<path d="M57.53 26.8211C57.534 28.3622 57.0534 29.8655 56.1563 31.1185C55.2591 32.3715 53.9908 33.3108 52.5306 33.8035C51.0704 34.2962 49.4922 34.3174 48.0193 33.8641C46.5464 33.4108 45.2533 32.5059 44.3228 31.2775C43.3923 30.049 42.8716 28.5591 42.8342 27.0185C42.7968 25.4779 43.2447 23.9645 44.1145 22.6924C44.9843 21.4202 46.232 20.4537 47.6811 19.9295C49.1303 19.4052 50.7076 19.3499 52.19 19.7711C53.7255 20.206 55.0774 21.1294 56.041 22.4016C57.0046 23.6737 57.5273 25.2253 57.53 26.8211Z" fill="#999999"/>
<path d="M33.52 41.8809V56.1609C33.52 56.6913 33.3093 57.2 32.9342 57.5751C32.5591 57.9501 32.0504 58.1609 31.52 58.1609C30.9896 58.1609 30.4808 57.9501 30.1058 57.5751C29.7307 57.2 29.52 56.6913 29.52 56.1609V41.8809C30.8272 42.2542 32.2128 42.2542 33.52 41.8809Z" fill="#000000"/>
<path d="M33.52 8.16113V27.7711C32.2128 27.3978 30.8272 27.3978 29.52 27.7711V8.16113C29.52 7.6307 29.7307 7.12199 30.1058 6.74692C30.4808 6.37184 30.9896 6.16113 31.52 6.16113C32.0504 6.16113 32.5591 6.37184 32.9342 6.74692C33.3093 7.12199 33.52 7.6307 33.52 8.16113Z" fill="#000000"/>
<path d="M38.86 34.8209C38.864 36.362 38.3834 37.8653 37.4863 39.1183C36.5891 40.3713 35.3208 41.3106 33.8606 41.8033C32.4004 42.296 30.8222 42.3172 29.3493 41.8639C27.8764 41.4106 26.5833 40.5057 25.6528 39.2772C24.7223 38.0488 24.2016 36.5589 24.1642 35.0183C24.1268 33.4777 24.5747 31.9643 25.4445 30.6921C26.3143 29.42 27.562 28.4534 29.0111 27.9292C30.4603 27.405 32.0376 27.3496 33.52 27.7709C35.0555 28.2057 36.4074 29.1292 37.371 30.4013C38.3346 31.6735 38.8573 33.225 38.86 34.8209Z" fill="#999999"/>
<path d="M14.86 33.8809V56.1609C14.86 56.6913 14.6493 57.2 14.2742 57.5751C13.8991 57.9501 13.3904 58.1609 12.86 58.1609C12.3296 58.1609 11.8208 57.9501 11.4458 57.5751C11.0707 57.2 10.86 56.6913 10.86 56.1609V33.8809C12.1672 34.2542 13.5528 34.2542 14.86 33.8809Z" fill="#000000"/>
<path d="M14.86 8.16113V19.7711C13.5528 19.3978 12.1672 19.3978 10.86 19.7711V8.16113C10.86 7.6307 11.0707 7.12199 11.4458 6.74692C11.8208 6.37184 12.3296 6.16113 12.86 6.16113C13.3904 6.16113 13.8991 6.37184 14.2742 6.74692C14.6493 7.12199 14.86 7.6307 14.86 8.16113Z" fill="#000000"/>
<path d="M20.19 26.8211C20.1916 28.3594 19.7098 29.8594 18.8125 31.109C17.9152 32.3586 16.6478 33.2946 15.1896 33.7847C13.7314 34.2747 12.156 34.2941 10.6861 33.8401C9.2163 33.386 7.92634 32.4815 6.99858 31.2543C6.07082 30.0272 5.55218 28.5395 5.51601 27.0015C5.47983 25.4636 5.92795 23.9531 6.79698 22.6837C7.66602 21.4143 8.91203 20.4501 10.3589 19.9275C11.8058 19.4048 13.3803 19.3501 14.86 19.771C16.3926 20.2095 17.7412 21.1341 18.7026 22.4057C19.664 23.6773 20.186 25.227 20.19 26.8211Z" fill="#999999"/>
</svg>