<svg width="100" height="38" viewBox="0 0 100 38" fill="none" xmlns="http://www.w3.org/2000/svg">
<path d="M2.4375 24.1367C3.51823 24.5534 4.67057 24.9049 5.89453 25.1914C7.13151 25.4648 8.47266 25.6016 9.91797 25.6016C10.8555 25.6016 11.7148 25.5169 12.4961 25.3477C13.2773 25.1784 13.9479 24.9115 14.5078 24.5469C15.0807 24.1823 15.5234 23.7201 15.8359 23.1602C16.1615 22.5872 16.3242 21.9036 16.3242 21.1094C16.3242 20.25 16.1484 19.5664 15.7969 19.0586C15.4583 18.5508 14.9766 18.1341 14.3516 17.8086C13.7266 17.4831 12.9714 17.2096 12.0859 16.9883C11.2005 16.7669 10.2174 16.5195 9.13672 16.2461C7.92578 15.9336 6.81901 15.5755 5.81641 15.1719C4.82682 14.7682 3.98047 14.2474 3.27734 13.6094C2.57422 12.9714 2.02734 12.1836 1.63672 11.2461C1.24609 10.3086 1.05078 9.14974 1.05078 7.76953C1.05078 6.84505 1.20052 6.01823 1.5 5.28906C1.8125 4.5599 2.22917 3.92839 2.75 3.39453C3.27083 2.84766 3.86979 2.38542 4.54688 2.00781C5.23698 1.63021 5.95312 1.32422 6.69531 1.08984C7.45052 0.855469 8.21875 0.686198 9 0.582031C9.78125 0.477865 10.5234 0.425781 11.2266 0.425781C11.7214 0.425781 12.3138 0.451823 13.0039 0.503906C13.707 0.55599 14.4492 0.653646 15.2305 0.796875C16.0247 0.927083 16.8385 1.10286 17.6719 1.32422C18.5182 1.54557 19.332 1.82552 20.1133 2.16406L18.7266 5.5625C17.6849 5.1849 16.5977 4.87891 15.4648 4.64453C14.3451 4.41016 13.1667 4.29297 11.9297 4.29297C11.1484 4.29297 10.4323 4.35807 9.78125 4.48828C9.13021 4.60547 8.5638 4.80078 8.08203 5.07422C7.61328 5.34766 7.2487 5.70573 6.98828 6.14844C6.72786 6.59115 6.59766 7.125 6.59766 7.75C6.59766 8.55729 6.75391 9.1888 7.06641 9.64453C7.39193 10.1003 7.85417 10.4714 8.45312 10.7578C9.05208 11.0443 9.78125 11.2917 10.6406 11.5C11.513 11.6953 12.4961 11.9362 13.5898 12.2227C14.7878 12.5352 15.888 12.9062 16.8906 13.3359C17.9062 13.7526 18.7786 14.2995 19.5078 14.9766C20.25 15.6406 20.8294 16.4674 21.2461 17.457C21.6628 18.4466 21.8711 19.6641 21.8711 21.1094C21.8711 22.3854 21.6693 23.4792 21.2656 24.3906C20.862 25.3021 20.3346 26.0703 19.6836 26.6953C19.0326 27.3073 18.2904 27.7956 17.457 28.1602C16.6237 28.5247 15.7773 28.8047 14.918 29C14.0586 29.1953 13.2253 29.319 12.418 29.3711C11.6107 29.4362 10.901 29.4688 10.2891 29.4688C9.6901 29.4557 9.01302 29.4167 8.25781 29.3516C7.51562 29.2865 6.73438 29.1823 5.91406 29.0391C5.09375 28.8958 4.26042 28.707 3.41406 28.4727C2.58073 28.2253 1.77344 27.9258 0.992188 27.5742L2.4375 24.1367ZM34.2148 4.03906V8.6875H41.0508V12.5938H34.2148V22.3398C34.2148 22.9779 34.2409 23.5052 34.293 23.9219C34.3581 24.3385 34.4688 24.6706 34.625 24.918C34.7812 25.1523 34.9961 25.3216 35.2695 25.4258C35.543 25.5169 35.8945 25.5625 36.3242 25.5625C36.7409 25.5625 37.2227 25.5169 37.7695 25.4258C38.3294 25.3346 38.987 25.2044 39.7422 25.0352C39.8203 25.2695 39.9049 25.543 39.9961 25.8555C40.1003 26.168 40.1979 26.4935 40.2891 26.832C40.3932 27.1576 40.4909 27.4766 40.582 27.7891C40.6732 28.0885 40.7578 28.3555 40.8359 28.5898C40.4714 28.7201 40.0417 28.8438 39.5469 28.9609C39.0651 29.0651 38.5573 29.1562 38.0234 29.2344C37.4896 29.3125 36.9492 29.3711 36.4023 29.4102C35.8555 29.4492 35.3411 29.4688 34.8594 29.4688C34.4036 29.4688 33.9544 29.4492 33.5117 29.4102C33.069 29.3711 32.6458 29.2995 32.2422 29.1953C31.8516 29.1042 31.487 28.9805 31.1484 28.8242C30.8099 28.668 30.5169 28.4661 30.2695 28.2188C29.6966 27.6589 29.319 26.8906 29.1367 25.9141C28.9544 24.9245 28.8633 23.668 28.8633 22.1445V12.5938H25.9336V8.6875H28.8633V4.03906H34.2148ZM64.3711 8.6875V28.8438C64.3711 30.3672 64.1237 31.6562 63.6289 32.7109C63.1471 33.7786 62.457 34.6445 61.5586 35.3086C60.6732 35.9727 59.6055 36.4544 58.3555 36.7539C57.1185 37.0534 55.7513 37.2031 54.2539 37.2031C53.0951 37.2031 51.9167 37.099 50.7188 36.8906C49.5339 36.6953 48.4336 36.3958 47.418 35.9922C47.6914 35.3411 47.9714 34.7031 48.2578 34.0781C48.5443 33.4531 48.8372 32.8281 49.1367 32.2031C50.0742 32.5026 51.0247 32.7565 51.9883 32.9648C52.9518 33.1862 53.8828 33.2969 54.7812 33.2969C55.0417 33.2969 55.3216 33.2839 55.6211 33.2578C55.9336 33.2448 56.2461 33.1992 56.5586 33.1211C56.8711 33.043 57.1771 32.9193 57.4766 32.75C57.776 32.5938 58.0365 32.3724 58.2578 32.0859C58.4922 31.8125 58.681 31.4609 58.8242 31.0312C58.9674 30.6146 59.0456 30.1068 59.0586 29.5078V25.543H58.8828C58.4531 26.194 58.0039 26.7669 57.5352 27.2617C57.0794 27.7435 56.5846 28.1536 56.0508 28.4922C55.5169 28.8177 54.931 29.0586 54.293 29.2148C53.6549 29.3841 52.9453 29.4688 52.1641 29.4688C50.888 29.4688 49.8333 29.2669 49 28.8633C48.1667 28.4596 47.4961 27.8802 46.9883 27.125C46.4935 26.3438 46.1419 25.4062 45.9336 24.3125C45.7253 23.2188 45.6211 21.9753 45.6211 20.582V8.6875H50.9727V22.125C50.9727 23.2448 51.2331 24.0977 51.7539 24.6836C52.2747 25.2695 52.9909 25.5625 53.9023 25.5625C54.3971 25.5625 54.8789 25.4453 55.3477 25.2109C55.8294 24.9766 56.2917 24.6706 56.7344 24.293C57.1771 23.9154 57.5872 23.4857 57.9648 23.0039C58.3424 22.5091 58.681 22.0143 58.9805 21.5195V8.6875H64.3711ZM75.25 21.0312C75.25 22.112 75.2565 23.0169 75.2695 23.7461C75.2956 24.4753 75.3346 25.1133 75.3867 25.6602C75.4128 25.9466 75.4388 26.2005 75.4648 26.4219C75.4909 26.6302 75.5169 26.8385 75.543 27.0469C75.569 27.2422 75.6016 27.444 75.6406 27.6523C75.6927 27.8477 75.7513 28.069 75.8164 28.3164C74.957 28.5768 74.0977 28.8047 73.2383 29C72.3789 29.1823 71.5 29.3385 70.6016 29.4688C70.4062 28.8828 70.237 28.2643 70.0938 27.6133C69.9635 26.9492 69.8984 26.2266 69.8984 25.4453V0.875H75.25V21.0312ZM89.6836 8.23828C91.3893 8.23828 92.8672 8.50521 94.1172 9.03906C95.3672 9.57292 96.3958 10.3151 97.2031 11.2656C98.0234 12.2031 98.6289 13.3229 99.0195 14.625C99.4232 15.9141 99.625 17.3203 99.625 18.8438C99.625 20.3672 99.4232 21.7799 99.0195 23.082C98.6289 24.3841 98.0234 25.5104 97.2031 26.4609C96.3958 27.3984 95.3672 28.1341 94.1172 28.668C92.8672 29.2018 91.3893 29.4688 89.6836 29.4688C87.9779 29.4688 86.5 29.2018 85.25 28.668C84 28.1341 82.9648 27.3984 82.1445 26.4609C81.3372 25.5104 80.7318 24.3841 80.3281 23.082C79.9375 21.7799 79.7422 20.3672 79.7422 18.8438C79.7422 17.3203 79.9375 15.9141 80.3281 14.625C80.7318 13.3229 81.3372 12.2031 82.1445 11.2656C82.9648 10.3151 84 9.57292 85.25 9.03906C86.5 8.50521 87.9779 8.23828 89.6836 8.23828ZM89.6836 12.0664C88.7461 12.0664 87.9779 12.2422 87.3789 12.5938C86.7799 12.9453 86.3112 13.4271 85.9727 14.0391C85.6341 14.651 85.3997 15.3737 85.2695 16.207C85.1523 17.0273 85.0938 17.9062 85.0938 18.8438C85.0938 19.7943 85.1523 20.6862 85.2695 21.5195C85.3997 22.3398 85.6341 23.056 85.9727 23.668C86.3112 24.2799 86.7799 24.7617 87.3789 25.1133C87.9779 25.4648 88.7461 25.6406 89.6836 25.6406C90.6211 25.6406 91.3893 25.4648 91.9883 25.1133C92.5872 24.7617 93.056 24.2799 93.3945 23.668C93.7331 23.056 93.9609 22.3398 94.0781 21.5195C94.2083 20.6862 94.2734 19.7943 94.2734 18.8438C94.2734 17.9062 94.2083 17.0273 94.0781 16.207C93.9609 15.3737 93.7331 14.651 93.3945 14.0391C93.056 13.4271 92.5872 12.9453 91.9883 12.5938C91.3893 12.2422 90.6211 12.0664 89.6836 12.0664Z" fill="#009393"/>
</svg>
