<svg xmlns="http://www.w3.org/2000/svg" viewBox="0 0 762 762" fill="none" shape-rendering="auto" width="512" height="512"><desc>"Adventurer" by "Lisa Wischofsky", licensed under "CC BY 4.0". / Remix of the original. - Created with dicebear.com</desc><metadata xmlns:dc="http://purl.org/dc/elements/1.1/" xmlns:cc="http://creativecommons.org/ns#" xmlns:rdf="http://www.w3.org/1999/02/22-rdf-syntax-ns#"><rdf:RDF><cc:Work><dc:title>Adventurer</dc:title><dc:creator><cc:Agent rdf:about="https://www.instagram.com/lischi_art/"><dc:title>Lisa Wischofsky</dc:title></cc:Agent></dc:creator><dc:source>https://www.figma.com/community/file/1184595184137881796</dc:source><cc:license rdf:resource="https://creativecommons.org/licenses/by/4.0/" /></cc:Work></rdf:RDF></metadata><mask id="2frjbto0"><rect width="762" height="762" rx="0" ry="0" x="0" y="0" fill="#fff" /></mask><g mask="url(#2frjbto0)"><rect fill="url(#83crnbgn)" width="762" height="762" x="0" y="0" /><defs><linearGradient id="83crnbgn" gradientTransform="rotate(266 0.5 0.5)"><stop stop-color="#ffdfbf"/><stop offset="1" stop-color="#c0aede"/></linearGradient></defs><path d="M396 164.8a224.8 224.8 0 0 1 104.8 42.4c6.2 4.9 12.5 9.4 18 15a225.4 225.4 0 0 1 71.8 149 58.5 58.5 0 0 1 50.9 42.2 71 71 0 0 1-27.6 76.5c-11 7.7-24.5 12-38 11.7-5 0-10-1.6-15-1.8-1.9 2.2-3.3 4.9-4.8 7.3A223.3 223.3 0 0 1 389 609.8c-11 .7-21.9 2-33 .7a223.7 223.7 0 0 1-178.8-342.3A223.4 223.4 0 0 1 352 163.5c14.6-1.4 29.4-.3 44 1.3Z" fill="#000"/><path fill-rule="evenodd" clip-rule="evenodd" d="M498.8 213.2A216 216 0 0 0 363 169c-13-.2-26.2 1.6-39 4a218 218 0 0 0-113.6 365.5 218.5 218.5 0 0 0 260.4 40.2c35-18.8 64.2-47.3 84.4-81.5l-3-1.6c-2.8-1.4-5.7-3-8-5-2.2-2-.3-5.8 2.7-4.7 1.5.7 3 1.6 4.4 2.4a55 55 0 0 0 59.6-3.6 64.5 64.5 0 0 0 25-69.8 53.1 53.1 0 0 0-24-31 52.6 52.6 0 0 0-47-2.8c-1.6.8-3.4 1.5-5 1.3-2.5-.2-2.8-4.2-.6-5.2 8-4 16.5-5.6 25.4-6.4a217 217 0 0 0-72-146.4c-4.4-4-8.7-8.1-13.9-11.3Zm107.6 196.2c2-1.2 1.3-5.1-1.4-5-2 0-4.2.8-6.2 1.6l-1.4.4a95.1 95.1 0 0 0-25.5 12.4c-2.2 2-2.2 4.4.1 6.2a92 92 0 0 0 5.2 2.8 36 36 0 0 1 13 9.2c-.2 1.9-2 3.4-3.4 4.5l-.2.2c-3.9 3-8.8 5-13.6 7-2.5 1-4.9 2-7.1 3.1-1.7.8-2.6 2.2-1.6 3.9 1 2 3.2 1.1 5 .5l.6-.2 5.4-2.3c5.4-2.3 11-4.5 15.4-8 2.7-2.1 5.1-5.1 5.4-8.7-.5-3.4-2.7-5.7-5.3-7.8a83 83 0 0 0-11.6-7.2l-1.1-.6c5.4-3 10.8-5.6 16.6-7.7l5-1.7a52 52 0 0 0 6.7-2.6Z" fill="#f2d3b1"/><g transform="translate(-161 -83)"><path d="M550.3 424.4a65.4 65.4 0 1 1 13 130 65.4 65.4 0 0 1-13-130Z" fill="#000"/><path d="M549.3 430.3a59.7 59.7 0 1 1 15.1 118.3 59.7 59.7 0 0 1-15.1-118.3Z" fill="#fff"/><path d="M381.2 447.1a55.3 55.3 0 0 1 60 45.9A54.9 54.9 0 0 1 341 532a57 57 0 0 1-9.1-28 55.1 55.1 0 0 1 49.4-57Z" fill="#000"/><path d="M376.5 453.7a49.3 49.3 0 1 1 20.8 96.4 49.3 49.3 0 0 1-20.8-96.4Z" fill="#fff"/><path d="M576.4 464.4a24.7 24.7 0 0 1 17.7 1.5c10 4.7 16.7 17.4 12.9 28.1a24.3 24.3 0 0 1-36.6 14.6 24.5 24.5 0 0 1 6-44.2ZM408.5 478.5c12.7-1.6 25 8.5 25.3 21.5 1 12.4-9.3 24.2-21.8 24.3a23 23 0 0 1-23.9-22.3 22.8 22.8 0 0 1 20.4-23.5Z" fill="#000"/></g><g transform="translate(-161 -83)"><path d="M456 380.4c2.3-.1 2.9 1.7 2.7 3.6-.5 4.7-.8 9.8-2.4 14.2-1.3.4-2.6.6-4 .9-1.1-4.8 0-10.3.7-15.1.4-1.7.8-3.9 3-3.6ZM476.8 386.6c0 3.3-.4 6.4-.7 9.6 41.7.5 83.3.4 125 .8 2.2 0 4 .8 6 1.6-.7 1.5-.3 3.8-2.3 4-8 1.4-16.6.6-24.8 1-17.3.6-34.7 1-52 1.5-17 .2-34 1.2-51 1.4-3.4.4-6.1-2.7-7.3-5.5 0-4.4 1-9.1 2-13.5 1.4-2.4 3-1.6 5-.9ZM439.8 392.2c0 4.9 0 10.8-2.2 15.2-3.3 1.5-7.2 1.8-10.6 2.5l-77 14c-4.2.8-8.7 2.2-13 2.1-2.6-.5-3.3-3.7-.9-5 3.2-1.4 7-1.7 10.4-2.6l87.2-20.3 1.3-5.7c1.6-.2 3.2-.2 4.8-.2Z" fill="#000"/></g><g transform="translate(-161 -83)"><path d="M580 568.7c2.4 1 2 3.4 1.4 5.4a92 92 0 0 1-28.4 34 96.5 96.5 0 0 1-60 17.5c-26.8-1-53-12-73.4-29.3-.4-2.4-.5-3.7 1.4-5.4 51.8-7.1 106.8-15 159-22.2Z" fill="#000"/><path d="M573.9 575.5c-8.2 15-21 27.5-36.4 35a89.2 89.2 0 0 1-40.5 9.2c-24.7.2-49-9-68.6-23.9 48-6.6 97.8-13.8 145.5-20.3Z" fill="#8F2E45"/></g><g transform="translate(-161 -83)"></g><g transform="translate(-161 -83)"></g><g transform="translate(-161 -83)"><path fill-rule="evenodd" clip-rule="evenodd" d="M498.6 201.1c-9.5-.8-19-1.7-28.6-.5-4-.2-7.6.6-11.3 1.3l-5.7 1c-6.2 1.3-12 3.3-18 5.3l-9 3a231.8 231.8 0 0 0-39.7 16.1l-.8.5c-2.4 1.4-5 2.9-7 4.8a48 48 0 0 0-6.3 7.7l-2 2.8-1.9 2c-1 1.2-2 2.2-2.6 3.7-.3.7-1.1 1.1-1.9 1.5l-.8.5a165 165 0 0 0-57.8 55.4 126.4 126.4 0 0 0-16.7 95.7c1 3 .2 5.8-.6 8.7l-.6 2.4a718 718 0 0 0-10.7 43.8c-.6 3.4-1.3 6.9-2.2 10.3-.1 2.1-.5 4.2-1 6.3-.4 2.3-.8 4.7-1 7.1-.8 2.8-1 5.6-1.3 8.5-.3 2.9-.6 5.8-1.4 8.5-.3 6.1-1 12.5-1.5 18.8-.6 7-1.3 14-1.6 20.7-.2 2.5-.2 5-.2 7.6 0 3.1 0 6.3-.5 9.4v2.6c0 4.1 0 8.3-.3 12.4a340 340 0 0 0 0 23.2l.3 13.8v1.5c.4 10 .7 19.5 1.6 29.5 0 4.9.6 9.6 1.1 14.4.4 3.5.8 7 1 10.5.6 3.4 1 6.7 1.4 10a345 345 0 0 0 13.4 57.8c4.4 13.2 8.6 26 15.9 38 1.1 1.4 2.6 1.5 4.2.8 1.5-1.8 1-4.3.6-6.6l-.3-1.8-.5-4.3A322.6 322.6 0 0 1 303 701l.1-2.8c.2-2.7.3-5.4 1-8 .6-5.3 1.4-10.8 2.2-16.3.7-5 1.5-10 2-14.9l.4-.8c.2-.6.4-1.1.8-1.6-.3 4.5.3 9 1 13.4.3 5.3 1.2 10.4 2.1 15.5l1.4 8.5a251 251 0 0 0 20 63c2.5 6.2 5.3 12.4 8.4 18.5a4.6 4.6 0 0 0 4.5 2.7c6.5-.7 12.9-1.6 19.2-2.5 8.9-1.3 17.7-2.6 26.7-3.3a148 148 0 0 1 18-1.8l3.6-.3c4-.9 8.1-1 12.3-1.2 2.4-.1 4.8-.2 7.2-.5 2.3-.2 4.6-.3 7-.3 3.4-.7 6.8-.7 10.2-.8 2.6 0 5.2 0 7.8-.4h8.3c17.9-.2 36.3-.4 53.7 3 14 2 26.8 5.5 39.6 9 10.5 3 21 6 32.3 8.1 20.7 4 43.2 3.3 63.2-3.7 10.5-3 19.7-8.4 28.6-14.8 17.5-12.9 32.8-29.4 44-48 2.5-4.5 3.8-7.7 5.2-11l2.7-6.4c2.5 8 3.5 16.3 4.5 24.7l.4 3c.4 16.7 0 32.8-3.3 49l-.8 2.5c-.5 1.5-1 3-1.3 4.5-.1 2 1.5 4.1 3.6 3.7 1.4-.6 2.3-1.8 3.1-3l.4-.5c18.7-26.6 31-58.6 39.3-89.7 4.3-16.7 7.6-32.3 10.1-49.4l1-5.7c.4-2.8 1-5.5 1-8.4.8-3.4 1-6.8 1.3-10.2a616.2 616.2 0 0 0 3.5-81c0-1.5 0-3.2-.7-4.5-1.8-1-3.9-.2-4.5 1.8a57.4 57.4 0 0 1-33.7 34.5 62.1 62.1 0 0 1-39.3 1l-.6-.6c0-1.7.7-3.5 1.2-5 8.9-27 16.9-55 21.5-83v-.1c.2-2 .4-3.9 1-5.8.4-1.7.6-3.4.7-5 .3-2.3.5-4.5 1.3-6.6a87 87 0 0 1 1.2-10c15.7.2 30.9 6.8 40.4 19.5l1.1 1.8c.7 1 1.4 2.1 2.3 2.9 1.9 1 4.3-.7 4.3-2.7l-.9-8.1a122 122 0 0 1-.7-7c-.6-2.2-.8-4.5-1-6.8-.3-2.8-.5-5.5-1.4-8.2-.2-3.9-1-7.6-1.6-11.4l-1.2-6.4A583 583 0 0 0 776 376a689.4 689.4 0 0 0-23-68c-8.2-22-24-40.6-42.9-54.3a143.2 143.2 0 0 0-33.5-18.3l-7.8-2.6a160.2 160.2 0 0 0-18-5.2l-15.8-4c-25-7.3-50-11.8-76-15.2-1.9-.4-3.8-.6-5.8-.9-1.7-.2-3.4-.4-5-.8l-6-.7c-2.7-.2-5.4-.5-8.1-1.2l-11.5-1.4c-7.2-1-14.4-1.9-21.6-2l-2.4-.3Zm-19 129.3-.2.2c-1.2 1.2-1.5 3.4-1.7 5.3 0 .8-.2 1.5-.3 2.1a77 77 0 0 0-1.2 7c-.4 2.7-.7 5.3-1.4 8l-.7 6.8a262 262 0 0 0-1.8 25.7c-.6 2.8-.6 5.7-.6 8.6v2.9l-.1 6.1c0 5.3 0 10.6.2 16 0 1.6-1.2 3.4-2.8 4h-6c-4.8-.5-9.7-.6-14.6-.8-3.8 0-7.6-.2-11.3-.5-5.7-.4-11.4-.6-17.1-.7-2-.5-4.2-.5-6.3-.5H412c-2.4 0-4.9 0-7.4-.2-5-.2-10-.5-14.6.2-1.6.2-3.3.2-4.3-1.4-9-14-14-29.8-16.3-46.2-1.2-6.2-1.7-12.7-2-19-.5-3.1-.5-6.3-.5-9.4 0-3.1 0-6.2-.4-9-.6 3.7-1.4 7.3-2.2 11-.7 3.5-1.5 7-2 10.4l-1 7.6a136.8 136.8 0 0 0-1.3 21.8c0 10.3-.2 20.4 1.8 30.6.7 3-2.3 4.4-4.8 4.8h-7.2c-4.3-.2-8.5-.2-12.8 0-1.7.2-3.5.2-5.3.3-3 0-6.1 0-8.8.7a44.5 44.5 0 0 0-9 7.1c-1 2-1.2 4.6-1.5 7-.2 1.6-.3 3.2-.7 4.6a231.3 231.3 0 0 0 3.5 75.4A217.8 217.8 0 0 0 470 680.1c6.3 2.1 13.3 3.4 20 4.6l6 1 2.8.4a222 222 0 0 0 151.7-35.6l7.7-5.6 6.2-4.4a698.7 698.7 0 0 0 5.8-38.4l1-11.8c.6-7.2 1.1-14.3 2.1-21.4 0-4 .2-8 .5-11.9.7-7.7 1-15.6 1.2-23.5.2-6.5.3-13 .8-19.5 0-7 .1-14.2.3-21.2.2-14 .5-27.8 0-41.8v-1.3c-.1-1.2-.1-2.5-1-3a247.6 247.6 0 0 0-23.2-8.4l-2.1-.7c-2.8-.8-5.7-1.8-7.8-3.7-1.3-1-1.7-2.8-2-4.3l-.1-.6c-2.4-8.6-5.8-16.6-9.5-24.7-.3 1.6-.2 3.4 0 5.1l.1 2.6a55 55 0 0 1-1.9 16.7c-1.4 3.2-4.6 3.2-7.6 2.6-2.4-.7-4.8-.8-7.2-1-2-.1-4-.3-5.9-.7-3.3-.4-6.7-.5-10-.7-2.3 0-4.6-.2-6.8-.3-2.3-.4-3.4-2.4-3.2-4.6.6-23.6-6.4-46.6-16.5-67.7a22 22 0 0 0 0 5.8l.2 2.9a240.7 240.7 0 0 1-2.4 46.7l-.8 5.8c-.5 1.5-1.4 3.4-3 4-2 1-4.8.7-7 .2-15.5-2.2-30-1-44.9 0l-13 1h-.2c-3.2.6-8.2 1.4-10.3-1.7-1-1-1.2-2.4-1.4-3.7l-.3-1.8c-.8-2.4-1-5-1.3-7.5-.3-2-.5-4-1-6l-1.4-13.7c-.8-7.5-1.7-15-2.1-22.3 0-3.3-.3-6.4-.6-9.6-.4-3.3-.7-6.5-.6-9.9-.5-1.5-.6-3-.7-4.6 0-1 0-1.9-.2-2.8l-.2-.9c-.4-2.6-.9-5.2-.7-7.8Z" fill="#000"/><g fill="#b9a05f"><path d="M475.5 205.8c29.7-.3 57.3 5 86.5 8.7 11.7 2 23.4 3.3 35 5.8 14.2 2.6 28.5 6.7 42.5 10.3 13.5 3.8 27.7 6.8 40.5 12.3 10.2 4.4 19.7 10 28.5 16.6 15.5 12 29.3 27.5 37.1 45.6 9.7 24.8 18.8 49 25.6 74.8a649 649 0 0 1 17.6 90.9l-.5-.2a55.4 55.4 0 0 0-39.5-16.6l-.5-.9c1.2-4.6 1.3-9.5 2.6-14 .5-1.9.1-5.4-2-6-2.5-.3-3.2 3-3.8 4.9-2.6 14.3-4.3 28.7-6.6 43-4 25.6-10.4 49.9-18 74.5-12.2 38.2-25.5 76.8-44.8 112a312.5 312.5 0 0 1-21.3 35.1 439 439 0 0 0 19.7-87.6c2-11.4 2.5-22.5 3.7-34 1.5-16.8 2-32.3 3-49 .8-14.8.7-29.3 1-44 .3-12.2-.6-27-.1-38.4 4 .7 8.2 3.5 12.3 4.5 2 0 3.4-2 2.6-3.7-.6-1-1.6-1.7-2.7-2.2-15.6-7-31.6-12-47.6-17.5-4.4-16.6-12-31-19.7-46.3-1.2-2-3.4-2.8-5.2-1-1.3 2.3.4 5 .8 7.5.8 4.4 1.8 8.7 2.2 13 .7 3.4.1 6.8.8 10-.1 4-.4 7.8-.9 11.6-.6.4-1.4.5-2.3.3-9.2-1-18.3-2.2-27.7-2.2-.5-.5-.7-1-.6-1.7.2-6.7-1-13.7-1.5-20.4-1-3.8-1.4-7.6-2.4-11.4-2.2-9-5.4-17.4-8.9-26-3-7-6.5-14.5-11.1-20.6-.3-4.5-1.3-9-1.8-13.5-1.7-6.7-1.7-14.2-4.5-20.5-2.2-1.9-5.2-.4-4.8 2.5 2.4 10.7 4.3 22.2 5.6 33 1.9 15.4 1.7 30.6 1.6 46-.5 7.5-1.3 18-2.9 25.2-5.5.2-12.4-1.4-18-1.4-9-.5-18.2.4-27 1.4-7.8 0-15.5 1.6-23.2 1.7l-.6-.8a563.8 563.8 0 0 1-6.6-58.1c-.5-12.6-2.4-25.5-3.9-38-.5-2.2-.4-5-2.7-6.2-2.4-1-4.6.8-4.9 3.2-2.3 7.6-3.8 15.3-5 23-1.5 5.6-1.7 11.3-2.6 17-.5 7-1.7 14-1.8 21-.4 12.9-1 25.6-.2 38.5-3.8 0-7.7-.2-11.6-.4-15.7-1.3-32.5-1.1-48-2-5.2-.6-11.7 0-16.8-.2a88 88 0 0 1-11.7-26.4A185 185 0 0 1 373 351c-.1-8.8-.6-18.4 1.3-27 2.4-14.2 8.2-27 15.2-39.6 1.5-1.8 2.6-4.3.3-6-2.3-1-3.8.6-5 2.4a197.8 197.8 0 0 0-18 36.2c-6.8 19-11.2 38.8-12.1 59-1.2 10 .1 19.6.1 29.4.9 1.5.4 3 .7 4.6.1 2 .8 4 .5 5.9-9 0-18-.2-26.9.6-1.4 0-4 1-5-.4-.9-4-2.3-7.9-2.6-12.1-2.2-17.2 0-35.6 6-51.9.9-2.2 2-4.4 0-6.6-2.6-.6-3.4 0-4.6 2.4a123.8 123.8 0 0 0-8 49.1c.8 4.4.4 8.7 1.9 13 .1 3 1.8 5.8 2 8.7-4.4 3.3-8.7 7.7-13.4 11A113.6 113.6 0 0 1 291 374a128.5 128.5 0 0 1 32.6-83.3c20.9-24.4 49.7-42.2 80.4-51.6 3-1.6 2.5-5.3-1.1-5.5-9 2.3-18 6.3-26.6 10 2.5-3.9 5.5-7.4 9.6-9.6 15.8-9.4 34.8-14.9 52-20.7a116 116 0 0 1 25-6.3c4.1-.8 8.4-.5 12.5-1.2Z"/><path d="M292.6 415.6c2 5.1 4.1 10.1 6.8 15 1.7 3 2.6 6.6 7 6.1 0 4.7-1.1 10.5-1.5 15.3a224.9 224.9 0 0 0 70 181.2c38.3 36 89.5 58 142.1 60.3 12 1.1 23.1-.1 35-1 39-4.1 76.8-18.8 108.5-42 .8-.6 1.5-1.3 2.1-2.1 0 4.4-1.6 8.2-2.2 12.5a261 261 0 0 1-19.1 57.2c-.8 2-2.8 4.4-2 6.6 1 2 3.5 2 4.9.5 14.3-18 27.5-36.7 37.8-57.3 15-27.7 26-57 36.2-86.7 2.5-.3 5.3 1.2 7.8 1.6 7.1 1 13.8 2 21 .8a61.7 61.7 0 0 0 46.2-28.5h.6c0 9.7.3 19.3-.5 29-1.3 27-4.3 55.3-9.5 81.8-7.5 38-18.6 74.2-38.4 107.8-.8-3 .6-6.6.8-9.6 1.2-14.7 1.6-29.5-.1-44.2-1.7-8.6-3.2-17.5-6-25.9-.6-1.8-3-2.1-4.6-1.5-1.4 1-1.9 2.9-2.6 4.4-2 6.4-4.5 12.7-7.6 18.5a162 162 0 0 1-26.8 34 117.3 117.3 0 0 1-42 28A120 120 0 0 1 591 781c-14.7-3-28.7-7.6-42.9-11.2-12-3.3-23.9-5-36-7-17-1.8-34-2-51-1.6-36.8 1.8-71.6 5-108 10.5-1.8 0-5.5 1.5-6.7 0-3.4-7.4-6.5-14.9-9.7-22.2-14.4-33.8-21-71-22.9-107.5.3-2.5-.9-5.3-3.9-4.6-2.4 1-2.2 3.8-3.2 6.1-1.4 6.3-3.4 13-4.1 19.5a403.9 403.9 0 0 0-5.7 43c-.2 9.7-.5 19.3 0 29-.3 5.3 1.3 10.5.7 15.7a415 415 0 0 1-19.9-71.8c-3-21.4-5.2-43.3-5.7-64.9-1-8.7-.4-17.3-.9-26 0-18.4.1-36.9 1.5-55 0-8.7 1.6-17.3 2-26 3.2-30.9 9.5-61.8 18-91.4Z"/></g></g><g transform="translate(-161 -83)"></g></g></svg>