<svg xmlns="http://www.w3.org/2000/svg" viewBox="0 0 762 762" fill="none" shape-rendering="auto" width="512" height="512"><desc>"Adventurer" by "Lisa Wischofsky", licensed under "CC BY 4.0". / Remix of the original. - Created with dicebear.com</desc><metadata xmlns:dc="http://purl.org/dc/elements/1.1/" xmlns:cc="http://creativecommons.org/ns#" xmlns:rdf="http://www.w3.org/1999/02/22-rdf-syntax-ns#"><rdf:RDF><cc:Work><dc:title>Adventurer</dc:title><dc:creator><cc:Agent rdf:about="https://www.instagram.com/lischi_art/"><dc:title>Lisa Wischofsky</dc:title></cc:Agent></dc:creator><dc:source>https://www.figma.com/community/file/1184595184137881796</dc:source><cc:license rdf:resource="https://creativecommons.org/licenses/by/4.0/" /></cc:Work></rdf:RDF></metadata><mask id="d2wew2mb"><rect width="762" height="762" rx="0" ry="0" x="0" y="0" fill="#fff" /></mask><g mask="url(#d2wew2mb)"><rect fill="url(#7c9svkx1)" width="762" height="762" x="0" y="0" /><defs><linearGradient id="7c9svkx1" gradientTransform="rotate(68 0.5 0.5)"><stop stop-color="#ffdfbf"/><stop offset="1" stop-color="#c0aede"/></linearGradient></defs><path d="M396 164.8a224.8 224.8 0 0 1 104.8 42.4c6.2 4.9 12.5 9.4 18 15a225.4 225.4 0 0 1 71.8 149 58.5 58.5 0 0 1 50.9 42.2 71 71 0 0 1-27.6 76.5c-11 7.7-24.5 12-38 11.7-5 0-10-1.6-15-1.8-1.9 2.2-3.3 4.9-4.8 7.3A223.3 223.3 0 0 1 389 609.8c-11 .7-21.9 2-33 .7a223.7 223.7 0 0 1-178.8-342.3A223.4 223.4 0 0 1 352 163.5c14.6-1.4 29.4-.3 44 1.3Z" fill="#000"/><path fill-rule="evenodd" clip-rule="evenodd" d="M498.8 213.2A216 216 0 0 0 363 169c-13-.2-26.2 1.6-39 4a218 218 0 0 0-113.6 365.5 218.5 218.5 0 0 0 260.4 40.2c35-18.8 64.2-47.3 84.4-81.5l-3-1.6c-2.8-1.4-5.7-3-8-5-2.2-2-.3-5.8 2.7-4.7 1.5.7 3 1.6 4.4 2.4a55 55 0 0 0 59.6-3.6 64.5 64.5 0 0 0 25-69.8 53.1 53.1 0 0 0-24-31 52.6 52.6 0 0 0-47-2.8c-1.6.8-3.4 1.5-5 1.3-2.5-.2-2.8-4.2-.6-5.2 8-4 16.5-5.6 25.4-6.4a217 217 0 0 0-72-146.4c-4.4-4-8.7-8.1-13.9-11.3Zm107.6 196.2c2-1.2 1.3-5.1-1.4-5-2 0-4.2.8-6.2 1.6l-1.4.4a95.1 95.1 0 0 0-25.5 12.4c-2.2 2-2.2 4.4.1 6.2a92 92 0 0 0 5.2 2.8 36 36 0 0 1 13 9.2c-.2 1.9-2 3.4-3.4 4.5l-.2.2c-3.9 3-8.8 5-13.6 7-2.5 1-4.9 2-7.1 3.1-1.7.8-2.6 2.2-1.6 3.9 1 2 3.2 1.1 5 .5l.6-.2 5.4-2.3c5.4-2.3 11-4.5 15.4-8 2.7-2.1 5.1-5.1 5.4-8.7-.5-3.4-2.7-5.7-5.3-7.8a83 83 0 0 0-11.6-7.2l-1.1-.6c5.4-3 10.8-5.6 16.6-7.7l5-1.7a52 52 0 0 0 6.7-2.6Z" fill="#f2d3b1"/><g transform="translate(-161 -83)"><path d="M562 467.8c1.7 0 3.2.3 4.9.6-.3 2.3.3 4.3-2.6 4.8l-28.3 2c-4.3.2-8.8 1.2-13 .9-2-.8-2.7-2-2.1-4.1 1.4-1.4 3.2-1.6 5-1.7 12-.7 24-1.9 36.1-2.5ZM396.3 481.3c1.3 1.2 2.2 2 2.1 3.9-1.4 2.5-5 2-7.4 2.3-8 .2-16 1.7-24 1.7-2.8-.3-2.2-2.5-2.6-4.6 10.3-2.6 21.4-1.7 32-3.3ZM618.9 483l3.1 2.3a65.6 65.6 0 0 1-34.2 61.5 65.4 65.4 0 0 1-96-53c2.1-3.2 5.8-3 9.2-3.2l92-6.2c8.7-.2 17.2-1.6 25.9-1.3Z" fill="#000"/><path d="M616.3 488.6a59.2 59.2 0 0 1-68.3 59.6 59.7 59.7 0 0 1-35.3-18.9 57.9 57.9 0 0 1-14.8-32.5c11.2-1.2 22.4-1.7 33.6-2.6a73 73 0 0 0 5.2 25c2 4.3 5.3 10 10.2 11.1 4.8.9 8-2.5 10-6.4 4.6-9.3 4-21.5 3.2-31.6 18.7-1.2 37.5-2.6 56.2-3.7Z" fill="#fff"/><path d="M415 499.7c8.1-.7 16.1-1.4 24.3-1l2.6 2.4a55.1 55.1 0 0 1-109.6 6.8c1-.9 2.1-2.7 3.6-2.8 13-1.6 26-1.7 39.1-3 13.4-.6 26.7-1.7 40-2.4Z" fill="#000"/><path d="M436.4 504.3a49.5 49.5 0 0 1-49.4 46.9 50 50 0 0 1-48.6-40.8c11.3-1 22.7-1.7 34-2.3 0 7.2 1 14.4 4.9 20.6 1.7 2.6 4.3 5.2 7.7 5 3.5-.1 6-3.3 7.5-6.3a42 42 0 0 0 2.2-20.7c13.9-.8 27.8-2.2 41.7-2.4Z" fill="#fff"/></g><g transform="translate(-161 -83)"><path d="M568.4 406c-.6-3-2.4-5-4.6-6.9a50 50 0 0 0-45.6-11.5 37.8 37.8 0 0 0-23.6 17c-2.9 5-4.8 10.6-4 16.4l.2 1.2c.2 1.7.3 3 2.4 3.6 2.2.1 4.4-.3 6.6-.7h.3l6.2-1.3 15.7-3.1c15-3.2 30-6.9 44.8-11.1 1.8-.3 1.7-1.6 1.7-3v-.6ZM430.1 431c-.8-9.8-8.9-17.4-17.9-20.3-13.2-4-28.3-.4-38.3 9.2a28 28 0 0 0-9.1 16.1c-.1 2.7 2.3 2.8 4.4 2.8h.8l9-.1c9.4-.2 18.7-.4 28-1.3 2.4-.3 4.8-.4 7.3-.6 4.2-.3 8.5-.6 12.7-1.1 2.4 0 3.3-2.6 3.1-4.6Z" fill="#000"/></g><g transform="translate(-161 -83)"><path d="M517 555.4a55.3 55.3 0 0 1 38.6 13c6 5.6 9.7 13.4 9.9 21.6a43.7 43.7 0 0 1-9.9 27.6 88.3 88.3 0 0 1-35.5 26.5c-7.3 2.9-14.4 5.8-22.1 7.3a86.3 86.3 0 0 1-50-5.3 131 131 0 0 1-38.4-24.7 54.5 54.5 0 0 1-13.2-18.9c-2-5.5-2.4-12 1.2-16.9 3.7-5.4 10-7.7 16.2-8.8 12.6-1.8 24.4.4 36.5 3.7a92 92 0 0 1 25-16.2c13-5.7 27.4-9.3 41.7-8.9Z" fill="#000"/><path d="M542.5 566.4c-3.5 2.6-7.4 4.7-10.9 7.3-4.3 4-7.6 11-12.7 14-5.2 1-10.5-3.2-15.2-1-9.3 3.5-18.8 6-28.5 7.9a117.6 117.6 0 0 1-43.6.9c-4.3-1.1-7.2 1.3-11.5 1.9-4.4-4.3-7.5-9.3-12.7-12.6 12.7-5.4 28.7-2 41.6 1.5 4 1.2 6-2.5 8.8-4.5a97.4 97.4 0 0 1 47.2-19.9 68.3 68.3 0 0 1 37.5 4.5Z" fill="#fff"/><path d="M548 570a25.8 25.8 0 0 1 11.8 21c-.2 7.4-3 14-6.8 20.2a45.8 45.8 0 0 0-20-2.8c-14.4.9-28.6 4.4-42 9.6-9 3.7-18 8.3-25.7 14.3-3.7 3-6.4 6.2-8.7 10.4a93.4 93.4 0 0 1-21.6-9.8c-9.9-5.8-19-12.6-26.4-21.4-3.8-4.7-7.6-10.4-7.8-16.5-.2-2.3.9-4.4 1.7-6.6 5.4 3.7 9.4 8.7 14.2 12.9 4 3.4 9.2-.7 13.8 0 5.8 1 11.6 1.5 17.5 1.8 20.4-.2 40.6-4.3 59.6-11.5 4.2.8 10 2.7 14 1 5-2.8 8.6-8.6 12.2-12.9 1.5-1.8 3.8-3 5.7-4.2 3-1.7 5.5-4 8.5-5.6Z" fill="#8F2E45"/><path d="M536 614.2c4.5-.1 9 .6 13.3 1.9a86.5 86.5 0 0 1-35.8 24.4 86.1 86.1 0 0 1-51.3 3.9c2-2.8 4.1-5.3 6.8-7.4a103 103 0 0 1 31-16c11.5-3.8 23.9-6.6 36-6.8Z" fill="#EA869E"/></g><g transform="translate(-161 -83)"></g><g transform="translate(-161 -83)"><path fill-rule="evenodd" clip-rule="evenodd" d="M608 415.8a850 850 0 0 1 32-.3h1.7c3 0 6.2 0 9.3.5 2.6.6 5.6 2 6 4.9 1 5 .5 12-1 17-.5 1.7-1.8 2-3.4 2.3-3.5.4-7 .6-10.4.8l-3.8.2c.1 4.3.4 8.6.7 13 .7 11.7 1.4 23.7-.5 34.8-.9 7.5-3 14.9-5.7 21.9-3.1 8.5-9.1 16.1-15.4 22.6a75.3 75.3 0 0 1-36.2 21.8c-10.9 2.4-22.2 3-33.3 2.2a86.8 86.8 0 0 1-27-8.5c-10.5-6-18.5-15-24.8-25.2a134 134 0 0 1-15.5-41.6c-.5-2.2-.8-4.5-1.1-6.7-.5-2.9-.9-5.7-1.7-8.4-.4-1.8-2.6-3-4.1-4-6.7-3.3-16.4-.9-19 6.7-.5 2.8-.6 5.7-.6 8.6A132.1 132.1 0 0 1 443 525a70.2 70.2 0 0 1-22.5 29.6 72.9 72.9 0 0 1-64 7.8 62.9 62.9 0 0 1-18.8-14.2A107.3 107.3 0 0 1 317 505c-1.9-6.8-3-13.8-3-20.9l-4.9.9c-2.4.5-4.7 1-7.2 1.1-2.2.3-4.2-.6-5.3-2.6-2-3.8-2.5-8.4-1.8-12.6l.1-.5c.3-1.1.5-2.3 1.6-2.8 27.5-12.6 56-20.6 85.5-26.5 11.3-2.3 22.5-3.8 34-3 10 0 20 2.3 28.9 7a41.8 41.8 0 0 0 35.1 0c3-1.6 5-3.8 7-6 1.1-1.5 2.4-2.9 3.9-4.2 9.8-9.1 23-13.3 36.1-14.8 13.1-2.4 26.3-3 39.5-3.7h2.5c5.6-.2 11.1-.2 16.7-.2 7.4 0 14.9 0 22.3-.4Zm-23 6.3c8.3-.4 16.3-.5 24.1 2.9l2.2.9c3.1 1.3 6.8 2.8 7.9 6a98.4 98.4 0 0 1 8.3 40.1 96 96 0 0 1-5.2 37.2 60.6 60.6 0 0 1-18.2 23.9 76 76 0 0 1-17.8 10.2 66.4 66.4 0 0 1-29.3 6.2 95 95 0 0 1-17.2-3.2l-.9-.2c-6-1.5-10.7-4.6-15.7-7.9l-.8-.5a70 70 0 0 1-17.1-17c-2.8-4-4.6-8.7-6.3-13.3l-1.2-3.1c-4.7-12-6-24.6-5.9-37.3 0-7.8 1.2-17 5.5-23.6 5.1-6.4 12-12.2 19.8-15 9.3-2.8 19.2-4.3 28.8-5a320.7 320.7 0 0 1 39-1.3Zm-172.4 22H410a93.1 93.1 0 0 0-30 3.2l-6.8 1.5a164.8 164.8 0 0 0-30.5 8.8c-5.8 2.1-12 4.5-15 10.2-4.8 9.8-3.7 19.6-2.5 29.9l.4 3.3a92 92 0 0 0 13.1 33.3c5 8 11 15 19.4 19.6 12.8 7 28 6.1 41.4 1.6 11.4-4.5 21.8-9.9 28.6-20.4 8.8-14 14-30.7 15.5-47.2.9-9.3-.1-18.8-2.7-27.8-.5-1.4-1-3-2-4.1a35.6 35.6 0 0 0-19.1-11.4c-2.3-.4-4.8-.4-7.2-.5Z" fill="#000"/></g><g transform="translate(-161 -83)"><path d="M514 213c19.8-.4 40.2.2 59.8 3.4C590 219.3 607 223 622 230c15.2 7 28.6 18 38.6 31.4a24 24 0 0 1 4.4 12.2 137 137 0 0 1 54.7 18.7A127 127 0 0 1 772 353a126 126 0 0 1 9 43c0 22-5.7 44.1-17 63.2a4 4 0 0 1-4 2c-3.7-.1-7.3-.8-11-1.2a71.2 71.2 0 0 1-20.2 36 114.5 114.5 0 0 1-46.7 28c-2.1.6-5.3 1.7-6.6-.7-2-3 .3-8 .7-11.3A173 173 0 0 0 635 367a125.2 125.2 0 0 0-68-40c-1.8-.5-3.9-.7-4-3-.2-5.9-3-10.7-7.6-14.3-7-5.2-15.9-7.6-24.4-5.6-17 3.4-33 13.6-45.9 25a170 170 0 0 0-37.7 52.3c-11.3 22.4-20.8 46-31.1 68.8A321.2 321.2 0 0 1 383 509c-11 15-23.8 29-38.5 40.5a170.8 170.8 0 0 1-43 24.2A110 110 0 0 1 271 581c-2.5.1-4.6-2.5-6.2-4.1 2.3-5 6.8-5.2 10.7-8.5 6.1-5 10.2-13 12-20.6 2.2-9.6 2.9-19 3.3-28.8.3-13-2.6-24.6-4.8-37.2-2.5-14.5-4.8-29-6.2-43.8-1.8-16.1-.4-33 2.5-49 4.3-24 13.6-46 25.5-67.2a173.5 173.5 0 0 1 35.4-42.5c32-28.3 70.6-48.8 112-59 19.4-4.8 38.8-6.5 58.8-7.4ZM719 576c2.9-.5 6 1.7 9 2 2.8.6 6 .3 8.8 1.1 1.6 1 1.2 3.2 1.4 4.9-.1 5.8-.3 11.3 1 17 .5 2.9 1.7 6 1.5 8.8-.1 2.3-3 2.7-4.7 2.3-8-1.2-16-5.3-23.2-8.9-2.7-1.4-7-4.7-6-8.2 2.1-4 5.9-7 7.9-11.3 1.4-2.4 2.2-5.9 4.4-7.7Z" fill="#000"/><path d="M545.9 219.3c10.4.9 20.8 1.7 31 3.7 15 3 30.9 6.7 44.6 13.5a98.5 98.5 0 0 1 33.8 27.2c2 2.8 4.1 5.7 3.8 9.3.1 2.1-.8 4.3 1.2 5.7 2 .8 4.4.8 6.5 1.1 19.9 2.8 39.2 10.2 55.8 21.5a119.9 119.9 0 0 1 46.7 61.4c10.1 30.7 6.3 65-10 92.9-3-.5-6.2-.8-9.3-1-.6-1.3-1-4-3-3.9-2.1-.3-3.2 1.6-3.3 3.5-.6 11.2-6 21.9-13 30.6a105.6 105.6 0 0 1-49.4 33.2c5.7-26.3 4.9-53.7-1.9-79.8a173 173 0 0 0-55-89.6 127.9 127.9 0 0 0-55.8-27.7c-2-8.2-6.5-14.5-14-18.6a38.8 38.8 0 0 0-31.1-2.6 114.3 114.3 0 0 0-42.6 25.2 148.5 148.5 0 0 0-28.7 35.3C441 379 431.8 400 423 420c-11.4 26.4-22 51.7-38 75.8-16.7 25-38.6 48.5-65.3 62.8-12.8 6.9-26.9 13-41.2 15.4a48.7 48.7 0 0 0 16.5-33c2-14 2.8-29.1.2-43.2-2.2-12.2-4.5-24.5-6.4-36.8-1.8-13.2-3.8-25.7-3.6-39 0-11.2 1.3-22.2 3.4-33.2 4.2-22.5 13-43.3 24-63.2a172.5 172.5 0 0 1 40.4-46.7A253.1 253.1 0 0 1 496 220c16.4-1.7 33.4-1.4 49.9-.8ZM721.9 582.5c3.5.6 7 1.5 10.6 1.8-.5 7.3.5 14.4 1.6 21.5a98 98 0 0 1-21.4-9.8 72 72 0 0 0 9.2-13.5Z" fill="#ab2a18"/></g><g transform="translate(-161 -83)"></g></g></svg>