<svg xmlns="http://www.w3.org/2000/svg" viewBox="0 0 762 762" fill="none" shape-rendering="auto" width="512" height="512"><desc>"Adventurer" by "Lisa Wischofsky", licensed under "CC BY 4.0". / Remix of the original. - Created with dicebear.com</desc><metadata xmlns:dc="http://purl.org/dc/elements/1.1/" xmlns:cc="http://creativecommons.org/ns#" xmlns:rdf="http://www.w3.org/1999/02/22-rdf-syntax-ns#"><rdf:RDF><cc:Work><dc:title>Adventurer</dc:title><dc:creator><cc:Agent rdf:about="https://www.instagram.com/lischi_art/"><dc:title>Lisa Wischofsky</dc:title></cc:Agent></dc:creator><dc:source>https://www.figma.com/community/file/1184595184137881796</dc:source><cc:license rdf:resource="https://creativecommons.org/licenses/by/4.0/" /></cc:Work></rdf:RDF></metadata><mask id="6hlnvsw7"><rect width="762" height="762" rx="0" ry="0" x="0" y="0" fill="#fff" /></mask><g mask="url(#6hlnvsw7)"><rect fill="url(#6rfz5ab5)" width="762" height="762" x="0" y="0" /><defs><linearGradient id="6rfz5ab5" gradientTransform="rotate(119 0.5 0.5)"><stop stop-color="#ffdfbf"/><stop offset="1" stop-color="#c0aede"/></linearGradient></defs><path d="M396 164.8a224.8 224.8 0 0 1 104.8 42.4c6.2 4.9 12.5 9.4 18 15a225.4 225.4 0 0 1 71.8 149 58.5 58.5 0 0 1 50.9 42.2 71 71 0 0 1-27.6 76.5c-11 7.7-24.5 12-38 11.7-5 0-10-1.6-15-1.8-1.9 2.2-3.3 4.9-4.8 7.3A223.3 223.3 0 0 1 389 609.8c-11 .7-21.9 2-33 .7a223.7 223.7 0 0 1-178.8-342.3A223.4 223.4 0 0 1 352 163.5c14.6-1.4 29.4-.3 44 1.3Z" fill="#000"/><path fill-rule="evenodd" clip-rule="evenodd" d="M498.8 213.2A216 216 0 0 0 363 169c-13-.2-26.2 1.6-39 4a218 218 0 0 0-113.6 365.5 218.5 218.5 0 0 0 260.4 40.2c35-18.8 64.2-47.3 84.4-81.5l-3-1.6c-2.8-1.4-5.7-3-8-5-2.2-2-.3-5.8 2.7-4.7 1.5.7 3 1.6 4.4 2.4a55 55 0 0 0 59.6-3.6 64.5 64.5 0 0 0 25-69.8 53.1 53.1 0 0 0-24-31 52.6 52.6 0 0 0-47-2.8c-1.6.8-3.4 1.5-5 1.3-2.5-.2-2.8-4.2-.6-5.2 8-4 16.5-5.6 25.4-6.4a217 217 0 0 0-72-146.4c-4.4-4-8.7-8.1-13.9-11.3Zm107.6 196.2c2-1.2 1.3-5.1-1.4-5-2 0-4.2.8-6.2 1.6l-1.4.4a95.1 95.1 0 0 0-25.5 12.4c-2.2 2-2.2 4.4.1 6.2a92 92 0 0 0 5.2 2.8 36 36 0 0 1 13 9.2c-.2 1.9-2 3.4-3.4 4.5l-.2.2c-3.9 3-8.8 5-13.6 7-2.5 1-4.9 2-7.1 3.1-1.7.8-2.6 2.2-1.6 3.9 1 2 3.2 1.1 5 .5l.6-.2 5.4-2.3c5.4-2.3 11-4.5 15.4-8 2.7-2.1 5.1-5.1 5.4-8.7-.5-3.4-2.7-5.7-5.3-7.8a83 83 0 0 0-11.6-7.2l-1.1-.6c5.4-3 10.8-5.6 16.6-7.7l5-1.7a52 52 0 0 0 6.7-2.6Z" fill="#f2d3b1"/><g transform="translate(-161 -83)"><path d="M619.4 468.6c3.8 2.6 8 5.3 11.1 8.9.3 1.6.1 3.4 0 5-1.9.7-3.3 1.1-5.3.3a142.2 142.2 0 0 0-91.4 0c-12.5 4.2-25 10.3-35.2 18.8-1.4 1-4 2.9-5.3 1.1-1.8-1.6-.7-3.5.1-5.2a80.6 80.6 0 0 1 30.7-30.4 94.1 94.1 0 0 1 95.3 1.5ZM405.5 480.4a56.6 56.6 0 0 1 31.2 18c2.8 3.8 6.5 8 5.9 13.1-1.6 0-3.3.7-4.6-.5a50.8 50.8 0 0 0-13.9-8 99.8 99.8 0 0 0-48.6-5.1 75 75 0 0 0-36 13.7c-1.9 1.2-3.1 2.8-5.6 1.8-1.2-1.9-1-4.5.3-6.2 16-21.8 45-31.8 71.3-26.8Z" fill="#000"/></g><g transform="translate(-161 -83)"><path d="M531 352.3a85.8 85.8 0 0 1 60.6 15.1 82.9 82.9 0 0 1 29 33c1 3-.4 3.8-2.6 5.3-4-2.2-6.9-5.6-10.5-8.3-13-9.7-28-16.3-43.7-20.2-15-3.5-30.6-5-45.8-2.8-4.8.4-9.3 2-14 2.7-2.4.2-5.1-1.2-4.2-4 1.9-4.2 4.2-8.6 7.6-11.7a45 45 0 0 1 23.6-9ZM383 428.8c13.4-.8 26.3-.6 39 4.3 5.9 2.3 11.6 5.9 14 12a14 14 0 0 1-1.8 12.6c-4.9-.7-9.4-2.6-14.1-3.8a203 203 0 0 0-71-6c-5 .4-10 2-14.8 1.8-1.8-.5-1.2-2.2-1-3.5.9-2.5 3.6-3.9 5.8-5.1a119.2 119.2 0 0 1 43.9-12.3Z" fill="#000"/></g><g transform="translate(-161 -83)"><path d="M505 609.6c4.7 1.3 9 4.7 12.2 8.2 1.4 1.7 3.6 3.9 3 6.2-.4 2.5-3.7 3-5 .8a27.5 27.5 0 0 0-9.4-8.5c-2.3-1.5-6.8-.6-6.7-4.2.5-3 3.6-2.9 6-2.5ZM498 623c5 1.5 8.4 5.8 8.8 11 1.3 13.2-9.4 25.8-21.8 29.2-12.4 3.7-28.8-1-35-13.2-2.5-4.2-3.8-9.2-2-14 1.8-4 5.8-5.6 10-6 5-.6 9.5 1 13.9 3.5 3.8-4 7.7-7.6 12.9-9.8 4-1.8 9-2 13.2-.7Z" fill="#000"/><path d="M499 630c3.2 3.5 2.2 9.6.4 13.5a25.5 25.5 0 0 1-26 15c-7.2-1.2-14.2-4.1-18.1-10.8-1.4-2.6-3.4-6.6-2-9.4 2.2-3.8 8.7-3.2 12.2-1.8 2.8.7 5.6 4 8.4 3.5 3.7-3.5 6.5-7.4 11.2-9.8 4.3-2.4 9.6-3.3 13.8-.1Z" fill="#8F2E45"/></g><g transform="translate(-161 -83)"><path d="M630.4 552.4a40.8 40.8 0 0 1 39.5 66.6 40.8 40.8 0 1 1-39.6-66.6ZM373.1 564.9a37.7 37.7 0 0 1 3 61.5 213 213 0 0 1-35-43.6c-3.3-5.9-6.7-11.2-8.8-17.6a38 38 0 0 1 40.8-.3Z" fill="#CA8D87"/></g><g transform="translate(-161 -83)"></g><g transform="translate(-161 -83)"><path d="M514 213c19.8-.4 40.2.2 59.8 3.4C590 219.3 607 223 622 230c15.2 7 28.6 18 38.6 31.4a24 24 0 0 1 4.4 12.2 137 137 0 0 1 54.7 18.7A127 127 0 0 1 772 353a126 126 0 0 1 9 43c0 22-5.7 44.1-17 63.2a4 4 0 0 1-4 2c-3.7-.1-7.3-.8-11-1.2a71.2 71.2 0 0 1-20.2 36 114.5 114.5 0 0 1-46.7 28c-2.1.6-5.3 1.7-6.6-.7-2-3 .3-8 .7-11.3A173 173 0 0 0 635 367a125.2 125.2 0 0 0-68-40c-1.8-.5-3.9-.7-4-3-.2-5.9-3-10.7-7.6-14.3-7-5.2-15.9-7.6-24.4-5.6-17 3.4-33 13.6-45.9 25a170 170 0 0 0-37.7 52.3c-11.3 22.4-20.8 46-31.1 68.8A321.2 321.2 0 0 1 383 509c-11 15-23.8 29-38.5 40.5a170.8 170.8 0 0 1-43 24.2A110 110 0 0 1 271 581c-2.5.1-4.6-2.5-6.2-4.1 2.3-5 6.8-5.2 10.7-8.5 6.1-5 10.2-13 12-20.6 2.2-9.6 2.9-19 3.3-28.8.3-13-2.6-24.6-4.8-37.2-2.5-14.5-4.8-29-6.2-43.8-1.8-16.1-.4-33 2.5-49 4.3-24 13.6-46 25.5-67.2a173.5 173.5 0 0 1 35.4-42.5c32-28.3 70.6-48.8 112-59 19.4-4.8 38.8-6.5 58.8-7.4ZM719 576c2.9-.5 6 1.7 9 2 2.8.6 6 .3 8.8 1.1 1.6 1 1.2 3.2 1.4 4.9-.1 5.8-.3 11.3 1 17 .5 2.9 1.7 6 1.5 8.8-.1 2.3-3 2.7-4.7 2.3-8-1.2-16-5.3-23.2-8.9-2.7-1.4-7-4.7-6-8.2 2.1-4 5.9-7 7.9-11.3 1.4-2.4 2.2-5.9 4.4-7.7Z" fill="#000"/><path d="M545.9 219.3c10.4.9 20.8 1.7 31 3.7 15 3 30.9 6.7 44.6 13.5a98.5 98.5 0 0 1 33.8 27.2c2 2.8 4.1 5.7 3.8 9.3.1 2.1-.8 4.3 1.2 5.7 2 .8 4.4.8 6.5 1.1 19.9 2.8 39.2 10.2 55.8 21.5a119.9 119.9 0 0 1 46.7 61.4c10.1 30.7 6.3 65-10 92.9-3-.5-6.2-.8-9.3-1-.6-1.3-1-4-3-3.9-2.1-.3-3.2 1.6-3.3 3.5-.6 11.2-6 21.9-13 30.6a105.6 105.6 0 0 1-49.4 33.2c5.7-26.3 4.9-53.7-1.9-79.8a173 173 0 0 0-55-89.6 127.9 127.9 0 0 0-55.8-27.7c-2-8.2-6.5-14.5-14-18.6a38.8 38.8 0 0 0-31.1-2.6 114.3 114.3 0 0 0-42.6 25.2 148.5 148.5 0 0 0-28.7 35.3C441 379 431.8 400 423 420c-11.4 26.4-22 51.7-38 75.8-16.7 25-38.6 48.5-65.3 62.8-12.8 6.9-26.9 13-41.2 15.4a48.7 48.7 0 0 0 16.5-33c2-14 2.8-29.1.2-43.2-2.2-12.2-4.5-24.5-6.4-36.8-1.8-13.2-3.8-25.7-3.6-39 0-11.2 1.3-22.2 3.4-33.2 4.2-22.5 13-43.3 24-63.2a172.5 172.5 0 0 1 40.4-46.7A253.1 253.1 0 0 1 496 220c16.4-1.7 33.4-1.4 49.9-.8ZM721.9 582.5c3.5.6 7 1.5 10.6 1.8-.5 7.3.5 14.4 1.6 21.5a98 98 0 0 1-21.4-9.8 72 72 0 0 0 9.2-13.5Z" fill="#3eac2c"/></g><g transform="translate(-161 -83)"></g></g></svg>