<svg xmlns="http://www.w3.org/2000/svg" viewBox="0 0 762 762" fill="none" shape-rendering="auto" width="512" height="512"><desc>"Adventurer" by "Lisa Wischofsky", licensed under "CC BY 4.0". / Remix of the original. - Created with dicebear.com</desc><metadata xmlns:dc="http://purl.org/dc/elements/1.1/" xmlns:cc="http://creativecommons.org/ns#" xmlns:rdf="http://www.w3.org/1999/02/22-rdf-syntax-ns#"><rdf:RDF><cc:Work><dc:title>Adventurer</dc:title><dc:creator><cc:Agent rdf:about="https://www.instagram.com/lischi_art/"><dc:title>Lisa Wischofsky</dc:title></cc:Agent></dc:creator><dc:source>https://www.figma.com/community/file/1184595184137881796</dc:source><cc:license rdf:resource="https://creativecommons.org/licenses/by/4.0/" /></cc:Work></rdf:RDF></metadata><mask id="pnmvswye"><rect width="762" height="762" rx="0" ry="0" x="0" y="0" fill="#fff" /></mask><g mask="url(#pnmvswye)"><rect fill="url(#qjit9ko8)" width="762" height="762" x="0" y="0" /><defs><linearGradient id="qjit9ko8" gradientTransform="rotate(105 0.5 0.5)"><stop stop-color="#ffdfbf"/><stop offset="1" stop-color="#c0aede"/></linearGradient></defs><path d="M396 164.8a224.8 224.8 0 0 1 104.8 42.4c6.2 4.9 12.5 9.4 18 15a225.4 225.4 0 0 1 71.8 149 58.5 58.5 0 0 1 50.9 42.2 71 71 0 0 1-27.6 76.5c-11 7.7-24.5 12-38 11.7-5 0-10-1.6-15-1.8-1.9 2.2-3.3 4.9-4.8 7.3A223.3 223.3 0 0 1 389 609.8c-11 .7-21.9 2-33 .7a223.7 223.7 0 0 1-178.8-342.3A223.4 223.4 0 0 1 352 163.5c14.6-1.4 29.4-.3 44 1.3Z" fill="#000"/><path fill-rule="evenodd" clip-rule="evenodd" d="M498.8 213.2A216 216 0 0 0 363 169c-13-.2-26.2 1.6-39 4a218 218 0 0 0-113.6 365.5 218.5 218.5 0 0 0 260.4 40.2c35-18.8 64.2-47.3 84.4-81.5l-3-1.6c-2.8-1.4-5.7-3-8-5-2.2-2-.3-5.8 2.7-4.7 1.5.7 3 1.6 4.4 2.4a55 55 0 0 0 59.6-3.6 64.5 64.5 0 0 0 25-69.8 53.1 53.1 0 0 0-24-31 52.6 52.6 0 0 0-47-2.8c-1.6.8-3.4 1.5-5 1.3-2.5-.2-2.8-4.2-.6-5.2 8-4 16.5-5.6 25.4-6.4a217 217 0 0 0-72-146.4c-4.4-4-8.7-8.1-13.9-11.3Zm107.6 196.2c2-1.2 1.3-5.1-1.4-5-2 0-4.2.8-6.2 1.6l-1.4.4a95.1 95.1 0 0 0-25.5 12.4c-2.2 2-2.2 4.4.1 6.2a92 92 0 0 0 5.2 2.8 36 36 0 0 1 13 9.2c-.2 1.9-2 3.4-3.4 4.5l-.2.2c-3.9 3-8.8 5-13.6 7-2.5 1-4.9 2-7.1 3.1-1.7.8-2.6 2.2-1.6 3.9 1 2 3.2 1.1 5 .5l.6-.2 5.4-2.3c5.4-2.3 11-4.5 15.4-8 2.7-2.1 5.1-5.1 5.4-8.7-.5-3.4-2.7-5.7-5.3-7.8a83 83 0 0 0-11.6-7.2l-1.1-.6c5.4-3 10.8-5.6 16.6-7.7l5-1.7a52 52 0 0 0 6.7-2.6Z" fill="#f2d3b1"/><g transform="translate(-161 -83)"><path d="M590 433c11.8 7 21 17.6 26.7 30 5.9-3.1 11.6-6.7 17.6-9.6 1.8-1 4.4.5 4 2.6.2 1.5-2 2.5-3 3.2l-16.4 9a65.7 65.7 0 0 1-39.4 82.3A65.9 65.9 0 0 1 501 523c-6-9.9-9.3-21.4-9.3-33a64.8 64.8 0 0 1 53.3-64.8c15.2-3 31.6 0 45 7.9Z" fill="#000"/><path d="M549.2 430.3a59.7 59.7 0 0 1 67.2 59.7 59.5 59.5 0 1 1-67.2-59.7Z" fill="#fff"/><path d="M390 447a55 55 0 1 1-55.7 38.6l-11.3-4.5c-2-.8-4-1.4-5.4-3-.4-2.5.8-4 3.2-3.7 5.2 1.3 10 4.2 15.2 5.6 1.4-1.7 2.2-3.8 3.3-5.7A55 55 0 0 1 390 447Z" fill="#000"/><path d="M376.5 453.7a49.3 49.3 0 1 1 20.8 96.4 49.3 49.3 0 0 1-20.8-96.4Z" fill="#fff"/><path d="M578.3 465.4a24.9 24.9 0 0 1 27.9 24.6c-.4 4.8-1.8 9.7-4.6 13.6a24.6 24.6 0 0 1-18.6 10.6c-8.2.5-16.4-3.3-21.2-10-6-8-6.3-19.8-.6-28a24.7 24.7 0 0 1 17-10.8ZM408.4 478.5a23 23 0 0 1 19.7 7.5c4 4.4 6 10 5.7 16 0 12-10.7 22.8-22.8 22.3a23 23 0 0 1-22.9-22.3 22.8 22.8 0 0 1 20.3-23.5Z" fill="#000"/></g><g transform="translate(-161 -83)"><path d="M397 373.1c6.9.2 14.2 2.9 18 9 1 1.4.6 3.6.7 5.3-6.3.2-12.5.4-18.6 1.9a112 112 0 0 0-41.7 20.1 90 90 0 0 0-22 23c-1.3 2.3-2.3 5.1-4.2 7-1.2.2-2.6.2-3.8.3 0-1.8-.3-3.4.2-5.2a88.7 88.7 0 0 1 38-50.8c10-5.8 21.8-11 33.5-10.6ZM578.5 411.7a71.4 71.4 0 0 1 30 10l-.2 4.7c-4 1.6-7.3-.1-11.3-.8-6.8-1.2-13.9-1.2-20.8-1a197.5 197.5 0 0 0-84 23.7c-1.4.6-3 1-4.4 1.5-2.6-5.4-3.6-11-.1-16.2 5-7.6 15.2-12.4 23.6-15.4 21.3-7.4 44.9-9 67.2-6.5Z" fill="#000"/></g><g transform="translate(-161 -83)"><path d="M515 571.8c10-.8 20.3-.7 29.5 3.7 4.7 2.3 8.8 6 9.7 11.5.9 5.2-1.1 9.9-4 14a60.7 60.7 0 0 1-20.7 16.6c-16.5 8.7-34 12-52.5 13.7a90 90 0 0 1-59.1-12.1 42.2 42.2 0 0 1-16-16c-2.6-5.3-2.3-12 1.9-16.4 4.8-5.2 12.4-7.2 19.2-7.9a92.7 92.7 0 0 1 44.8 8.5 117.7 117.7 0 0 1 47.2-15.6Z" fill="#000"/><path d="M540.4 580a85 85 0 0 1-12.1 8.3c-2.7 1.5-3.8 4.1-5.5 6.6a30.2 30.2 0 0 1-5.7 6.7c-3-1-6-2.8-9.1-3.5-3 .5-6 1.9-8.9 2.7-10 2.8-20.7 5-31.1 4.9-3 0-5.8.2-8.7.8.3 2.5-.5 4.7 2.9 5 14.6.9 29.7-2 43.6-6.6 4.7-2.1 7.7 3 12.8 1.7 4.4-1.3 7.4-6.6 10-10 1.7-2.9 4.4-4.2 7-6 3.8-2.1 7-4.8 10.4-7.4 1.5 2.6 3.2 4.7 2.5 7.8-1.4 6.4-6.6 11-11.5 15a107 107 0 0 1-44.3 17.6c-14.4 2-28 4.2-42.6 1.5A78.8 78.8 0 0 1 414 609c-3.8-3.4-8.4-8.5-7.8-14 .3-3.8 3.9-6.3 7-7.7a51 51 0 0 1 25.2-2.2 89.4 89.4 0 0 1 25.4 7.2c1.6.7 3.4 1.7 5 1.5 3.2-1.2 5.8-3.5 8.8-5A102 102 0 0 1 506 579c11.4-2 23.3-2.9 34.5 1Z" fill="#fff"/></g><g transform="translate(-161 -83)"><path d="M630.4 552.4a40.8 40.8 0 0 1 39.5 66.6 40.8 40.8 0 1 1-39.6-66.6ZM373.1 564.9a37.7 37.7 0 0 1 3 61.5 213 213 0 0 1-35-43.6c-3.3-5.9-6.7-11.2-8.8-17.6a38 38 0 0 1 40.8-.3Z" fill="#CA8D87"/></g><g transform="translate(-161 -83)"><path d="M569 416.3c10.7-.3 21.4 0 32-.2 14-.7 28-.4 42-.6 3.9.2 9-.1 12.2 2.4 2.4 1.6 2.2 5.5 2.4 8-.1 4.4-.3 9.5-2.4 13.4-5 2-11.4 1.2-16.8 1.9.4 12.3 1.7 24.6 1.3 36.8-.7 14-3.7 28-10.3 40.4-8.1 13-20 24.3-33.6 31.5a77 77 0 0 1-33.3 7.7c-6.3.2-12.1.5-18.3-.8-9.4-2-18.8-4.4-27-10A81.6 81.6 0 0 1 492 516a193.1 193.1 0 0 1-13.3-43.9c-.5-2.3-2.4-3.5-4.3-4.4-6.7-3-15-.6-18.8 5.6-.8 2.4-1 5-1.2 7.6-.6 7.6-2.2 15.3-3.9 22.8-3.1 13.6-9 26.3-16.8 37.8a50.8 50.8 0 0 1-16.2 14.8 75.6 75.6 0 0 1-34.4 10.3c-7.2-.2-14.2-.4-21.1-2.5-5.5-1.3-10.5-4.8-15.2-8a57.7 57.7 0 0 1-15.3-16.7c-5.3-8.3-9.3-17.3-12.2-26.7a97.5 97.5 0 0 1-5.2-28.7c-4.6.7-9.4 2.2-14 2-4.4-.9-5.3-7.6-5.5-11.1.1-2.4-.1-6.8 2.7-7.7 21.6-9.8 44.4-17 67.5-22.4 17-3.7 34.8-8.3 52.3-6.7 11.2 1 22.8 4 31.7 11 3.2 2.5 5.5 7 9.4 7.7 7 1.8 14.5-1.3 20.9-4 3.6-10 10-17.3 19-22.8a89.3 89.3 0 0 1 20.8-8.3c16.7-4 33.1-4.6 50.2-5.5Z" fill="#000"/><path d="M307.1 478.2c1.2-1.2 3.4 0 2.4 1.6-1.2 1.2-3.4 0-2.4-1.6Z" fill="#000"/><ellipse cx="605" cy="457.5" rx="14" ry="10.5" fill="#fff"/><ellipse cx="411" cy="476.1" rx="11" ry="8.1" fill="#fff"/></g><g transform="translate(-161 -83)"><g fill="#000"><path d="M453.2 221.6c2.2-.3 5-1 7 .2 1.2 1.4 1.4 3.2.2 4.7-1.8 2.1-4.2 3.8-6.4 5.5a75.8 75.8 0 0 0-9.3 9 387.8 387.8 0 0 1 129.3-7.7c29.1 3.2 59.2 9.6 86 21.7 14.5 6.6 29 15.3 39.9 27.1a52 52 0 0 1 14.7 31.8c4 .8 8 1.6 11.5 4A51 51 0 0 1 743 340a159 159 0 0 1 11.3 44.7c1.4 14.2 2.2 28.4 1.4 42.7-.8 9.5-1.3 19-3 28.5-.2 1.3-.3 2.5-1.8 3-6.7.7-14.4.7-20.7 3.2-9 3.5-17.6 7.2-25.7 12.3-1.3.7-3 2-4.5 1.7a3 3 0 0 1-2.3-4.5c2.5-5.4 5.7-10.5 8.7-15.8-6 2.7-12.1 5.1-17.7 8.6-1.7-1.2-3.4-2.1-3.6-4.5-.8-10.4-.6-21-1.6-31.4-1.4-1.3-3-2.4-4.6-3.5a167 167 0 0 1-18.1-13.9c-1.6-1.4-3-3-4-5a238.6 238.6 0 0 1-20-74.8c-7.9 0-15.5-.6-23.3-1.6 2 1.8 4.8 3.5 5.6 6.2-.6 2.4-2.5 3-4.5 3.9a139 139 0 0 1-51.6 8.3c-28.2-.3-56.4-6.5-82.4-17.3 3.5 4 7 7.9 11.2 11.3 1.5 1.4 3.6 2.9 4.4 4.8-.4 2.8-2.4 4.2-5.2 3.9-17.5-1.6-34.6-5-52-8.3 0 5.9 1.3 11.6 1.6 17.5-.5 2-3 2.4-4.6 1.4-1.5-1-2.8-2.2-4-3.4-9-8.6-17.7-17-25.4-26.6-1.4-1.5-2.7-3.7-4.8-3.9-7.5-1-15.2-2.3-22.8-2.5-4-.3-8.1 2.5-11.7 4.1-4 2.2-8.7 3.9-12.2 6.8-3.8 4.6-7 9.9-10.3 14.9a3 3 0 0 1-1.8 1.4 40.7 40.7 0 0 1-22.4-11A74 74 0 0 1 303 310c-.6-2-1.3-4.9.9-6.2 1.8-1.2 4.5.3 6.3 1 6.4 3.1 12.3 6.6 19.3 8.3a32 32 0 0 1-2-18.9 65.8 65.8 0 0 1 24.4-40.3c3-2.3 6.4-5 10-6.2 2.9-1 5.2 1.6 4.6 4.3-1.3 5.3-3.6 10.3-5 15.6a185 185 0 0 1 40-29.2 182 182 0 0 1 51.7-16.8Z"/><path d="M712.3 472.3c2.2-1.2 4.7 1.3 3.7 3.5-1.6 1.8-4 3-6.1 4.1-6.1 3.3-12 6.8-17.9 10.4l-2.7-1.1c.2-1.3 0-2.9 1.1-3.8 3-2.6 7-4.4 10.4-6.6 3.9-2.1 7.6-4.6 11.5-6.5Z"/></g><path d="M450.1 228c-5.2 4.8-10 9.5-13.8 15.4-.8 1.2-1 2.4-.7 3.8 1.9 1.8 3.7 1 6 .6 40.5-10.5 83.7-13 125.4-9.5 29.5 2.8 59.9 8.8 87.2 20.5a127.8 127.8 0 0 1 38.1 23.9A51 51 0 0 1 708 309c.7 2.9.1 6.7 1.7 9.3 1.4 2.4 4 1.6 6.3 2 5 .2 9.8 4 13 7.7a77 77 0 0 1 13.5 27.5c3.9 13.1 6 26.9 7 40.5 1 19.3.7 38.7-2.1 57.9-6.6.8-12.9.9-19.2 3.2-7.4 1.8-14.3 5.9-21.2 9.1 2-3.7 4.4-7.4 6-11.3a6 6 0 0 0 0-4.8c-2-1.6-4-1-6.1-.2-5.5 2.2-10.8 4.7-16 7.3-1-10.2-.9-21-1.8-31.1-2.4-3-6.2-4.7-9.2-7-5.8-4.1-12.3-8.3-17.1-13.5a292 292 0 0 1-15-42.6 171.7 171.7 0 0 1-5.7-35c-1-1.4-3.4-2-5-2-9-.3-18.3-.4-27-2.3-2.4-.5-4.5-.8-6.1-2.6-3.5-3.2-6.3-7.4-10.2-10-3-.6-4.4 2.3-2.6 4.6 6.3 6.8 12.9 13.3 19.9 19.3-15 5.7-32 7.6-48.1 7.6-30-.7-60.1-7.6-87.4-20.3-2.4-1-3.8-1-6 .4-1.3 2.5.2 4 1.7 6 4.6 5.5 9.8 10.7 14.8 15.8-15-1.5-30.1-4.5-45-7.2-2.9-.5-5.9-.2-7 2.9-1 4.1 0 9 .6 13.2-7.5-7.5-15.2-15-21.9-23.2-5.3-6.4-10.4-13-15.4-19.6-1-1.1-2.6-2.9-4.2-2.3-2 .6-2.2 3-1.2 4.6 2 3 4.5 5.9 6.6 8.9-6-1.3-12-1.4-18-2.2-2.4-.2-4.4-.7-6.6.4-7.4 3.4-14.7 7.1-21.8 11.1-4.2 4.3-7.2 10.1-10.7 15-6-1.2-11.7-4.1-16.2-8.4a66.7 66.7 0 0 1-16.2-27.2c6.7 3.1 14.4 7.6 21.9 7.8 2.2 0 5 .2 6.3-2 1.2-1.8-.4-3-1.3-4.4-3.4-4.2-3.4-10.1-3-15.3A62 62 0 0 1 360 255c-2 6.4-4.6 13.3-5 20-.2 3.1 3.3 4.2 5.2 2.2a185.3 185.3 0 0 1 42.3-32.8c15-8 31-13 47.7-16.4Z" fill="#cb6820"/></g><g transform="translate(-161 -83)"></g></g></svg>