<svg xmlns="http://www.w3.org/2000/svg" viewBox="0 0 762 762" fill="none" shape-rendering="auto" width="512" height="512"><desc>"Adventurer" by "Lisa Wischofsky", licensed under "CC BY 4.0". / Remix of the original. - Created with dicebear.com</desc><metadata xmlns:dc="http://purl.org/dc/elements/1.1/" xmlns:cc="http://creativecommons.org/ns#" xmlns:rdf="http://www.w3.org/1999/02/22-rdf-syntax-ns#"><rdf:RDF><cc:Work><dc:title>Adventurer</dc:title><dc:creator><cc:Agent rdf:about="https://www.instagram.com/lischi_art/"><dc:title>Lisa Wischofsky</dc:title></cc:Agent></dc:creator><dc:source>https://www.figma.com/community/file/1184595184137881796</dc:source><cc:license rdf:resource="https://creativecommons.org/licenses/by/4.0/" /></cc:Work></rdf:RDF></metadata><mask id="1vxkfeg9"><rect width="762" height="762" rx="0" ry="0" x="0" y="0" fill="#fff" /></mask><g mask="url(#1vxkfeg9)"><rect fill="url(#esrtldil)" width="762" height="762" x="0" y="0" /><defs><linearGradient id="esrtldil" gradientTransform="rotate(279 0.5 0.5)"><stop stop-color="#ffdfbf"/><stop offset="1" stop-color="#c0aede"/></linearGradient></defs><path d="M396 164.8a224.8 224.8 0 0 1 104.8 42.4c6.2 4.9 12.5 9.4 18 15a225.4 225.4 0 0 1 71.8 149 58.5 58.5 0 0 1 50.9 42.2 71 71 0 0 1-27.6 76.5c-11 7.7-24.5 12-38 11.7-5 0-10-1.6-15-1.8-1.9 2.2-3.3 4.9-4.8 7.3A223.3 223.3 0 0 1 389 609.8c-11 .7-21.9 2-33 .7a223.7 223.7 0 0 1-178.8-342.3A223.4 223.4 0 0 1 352 163.5c14.6-1.4 29.4-.3 44 1.3Z" fill="#000"/><path fill-rule="evenodd" clip-rule="evenodd" d="M498.8 213.2A216 216 0 0 0 363 169c-13-.2-26.2 1.6-39 4a218 218 0 0 0-113.6 365.5 218.5 218.5 0 0 0 260.4 40.2c35-18.8 64.2-47.3 84.4-81.5l-3-1.6c-2.8-1.4-5.7-3-8-5-2.2-2-.3-5.8 2.7-4.7 1.5.7 3 1.6 4.4 2.4a55 55 0 0 0 59.6-3.6 64.5 64.5 0 0 0 25-69.8 53.1 53.1 0 0 0-24-31 52.6 52.6 0 0 0-47-2.8c-1.6.8-3.4 1.5-5 1.3-2.5-.2-2.8-4.2-.6-5.2 8-4 16.5-5.6 25.4-6.4a217 217 0 0 0-72-146.4c-4.4-4-8.7-8.1-13.9-11.3Zm107.6 196.2c2-1.2 1.3-5.1-1.4-5-2 0-4.2.8-6.2 1.6l-1.4.4a95.1 95.1 0 0 0-25.5 12.4c-2.2 2-2.2 4.4.1 6.2a92 92 0 0 0 5.2 2.8 36 36 0 0 1 13 9.2c-.2 1.9-2 3.4-3.4 4.5l-.2.2c-3.9 3-8.8 5-13.6 7-2.5 1-4.9 2-7.1 3.1-1.7.8-2.6 2.2-1.6 3.9 1 2 3.2 1.1 5 .5l.6-.2 5.4-2.3c5.4-2.3 11-4.5 15.4-8 2.7-2.1 5.1-5.1 5.4-8.7-.5-3.4-2.7-5.7-5.3-7.8a83 83 0 0 0-11.6-7.2l-1.1-.6c5.4-3 10.8-5.6 16.6-7.7l5-1.7a52 52 0 0 0 6.7-2.6Z" fill="#9e5622"/><g transform="translate(-161 -83)"><path d="M555 424a65.3 65.3 0 0 1 63.5 43.5c2.1 5.6 2.6 11.1 3.6 17-1.3 1.4-1.6 3.3-4 3-7-.4-14-2.1-21-2.3-8.8 0-17.4-.3-26.1 1-9.9 1.6-19.5 2.6-29.1 5.7a175 175 0 0 0-32.5 12.4c-3.3 1.7-6.5 3.8-9.9 5.3-2 .7-4.4.3-5.3-2a65.6 65.6 0 0 1 17.2-65.2 65 65 0 0 1 43.6-18.3Z" fill="#000"/><path d="M557 429.9a59.1 59.1 0 0 1 59 52.4c-14.8-2.9-30-3.8-45-2.5-6 .7-12 1.9-17.9 2.9-1-3.3-1.7-6.4-3.6-9.3a26.1 26.1 0 0 0-46.2 3.8c-3.1 7.4-2.3 15.5 1.2 22.6l-5.8 3a60 60 0 0 1 20.5-59.6 59 59 0 0 1 37.8-13.3Z" fill="#fff"/><path d="M411.4 452.6a55 55 0 0 1 29.4 61.2l-2.9 1.6c-9.8-2.8-19.7-4.7-29.9-5.5-17.9-1.1-36.1-1.7-54 0-7 .2-13.5 2-20.4 1.6-1-2.4-1.8-4.8-1.8-7.5a55 55 0 0 1 79.6-51.5Z" fill="#000"/><path d="M397.2 453.6a49.6 49.6 0 0 1 38.6 55.3 83 83 0 0 0-12.3-3c-12.4-1.9-25-2.6-37.6-2.4-.1-3.9 0-7.4-1.5-11a23.1 23.1 0 0 0-42.7-.8c-2.2 5-1.8 9.7-2 14.9-1.7-1.3-2-1.4-2-3.5a49.4 49.4 0 0 1 59.5-49.4Z" fill="#fff"/></g><g transform="translate(-161 -83)"><path d="M531 352.3a85.8 85.8 0 0 1 60.6 15.1 82.9 82.9 0 0 1 29 33c1 3-.4 3.8-2.6 5.3-4-2.2-6.9-5.6-10.5-8.3-13-9.7-28-16.3-43.7-20.2-15-3.5-30.6-5-45.8-2.8-4.8.4-9.3 2-14 2.7-2.4.2-5.1-1.2-4.2-4 1.9-4.2 4.2-8.6 7.6-11.7a45 45 0 0 1 23.6-9ZM383 428.8c13.4-.8 26.3-.6 39 4.3 5.9 2.3 11.6 5.9 14 12a14 14 0 0 1-1.8 12.6c-4.9-.7-9.4-2.6-14.1-3.8a203 203 0 0 0-71-6c-5 .4-10 2-14.8 1.8-1.8-.5-1.2-2.2-1-3.5.9-2.5 3.6-3.9 5.8-5.1a119.2 119.2 0 0 1 43.9-12.3Z" fill="#000"/></g><g transform="translate(-161 -83)"><path d="M495.2 561c15.5 1.8 31.3 5.5 44.5 14.2 7 4.6 13.5 11.3 15.3 19.8 2.4 8.6-3.6 18.2-11.7 21.4-7.2 3-14 1.8-21.3.1-6-1-12-1.6-18-1.8-22.6-1-45.1.8-67.2 5.8-5.7 1-11.1 3.2-16.8 3.7-6.5.1-13-3.1-16.8-8.5-3-4.1-4.4-9.6-4.3-14.7.6-7.8 5.4-15 11.2-19.9a85 85 0 0 1 35.4-16.8 157 157 0 0 1 49.7-3.3Z" fill="#000"/><path d="M506 568.6a76 76 0 0 1-35.8 13 92 92 0 0 1-41.5-5c8.8-4.8 19.4-7 29.2-8.8 16.1-2.2 32.1-2.4 48 .8Z" fill="#fff"/><path d="M513.8 570.3c11 3.2 22.5 7.7 30.4 16.5 4.2 4.8 7 11.2 4 17.4-3 6.2-9.7 8.6-16.2 8a234.4 234.4 0 0 0-69-2 239.8 239.8 0 0 0-36 6.8c-5.7 1.4-11.3 2.1-16.2-1.8-6.6-5.3-7.4-14.6-3.5-21.8a40.2 40.2 0 0 1 14.7-13.6c4 2.5 8.4 3.7 13 5a95 95 0 0 0 67-6.8c4.3-2 7.8-5.1 11.8-7.7Z" fill="#8F2E45"/></g><g transform="translate(-161 -83)"><path d="M611.4 569.4c4.5-2.8 10.3 1.4 8.7 6.6-1.2 4.5-7.3 5.3-10 1.9a6 6 0 0 1 1.3-8.5ZM337.1 571c2.3-1.3 5.7-.6 7.4 1.4 3 3 1 9.6-3.6 9.3-2.1-1.8-3.5-4.4-4.6-7-.6-1.6-.8-2.6.8-3.7ZM650.5 571.6c1.3-.7 3-.5 4.4-.3 3.4.8 5.4 5.1 3.5 8.2-1.6 2.9-5.1 4-8 2.2-3.9-2.2-3.7-8 0-10.1ZM372.2 574.1c4-2.2 9.5 1.2 8.7 5.9-.4 4.7-6.1 6.3-9.5 3.6-3-2.5-2.5-7.4.8-9.5ZM632.5 591.6c4.2-1.5 8.9 1.8 8 6.4-.7 5-7.1 6.3-10.1 2.6-2.6-3-1.3-7.3 2.1-9ZM358 593.8c3.7.4 6.4 4.5 4.8 8-1.2 2.5-3.3 3-5.8 3.8-1.6-2.2-3.7-4.3-4.9-6.8-.8-3.2 3-5.6 6-5Z" fill="#7A624E"/></g><g transform="translate(-161 -83)"></g><g transform="translate(-161 -83)"><g fill="#000"><path d="M546 236.8a220 220 0 0 1 141.8 52.3 189.7 189.7 0 0 1 60.4 97.9c5.5 21.9 6.6 44.4 4.3 66.8-.4 1.8-.5 5.6-3 5.6-4.2.2-8.5 0-12.7 1.2a64.9 64.9 0 0 0-31.2 17c-1 1-2 2.2-3.6 1.8-1.6 0-2.3-2-2.1-3.4.3-3 1.5-6 2.1-9 1.6-6.7 1.9-13.2 2.5-20 .6-6.8-.3-13.3-.9-20-.4-3.8-1.2-7.3-2-11a54.2 54.2 0 0 1-26.5-7c-15.8-9-27.3-25-35.5-40.8-9.8-19-16-40-20.2-60.8a441.8 441.8 0 0 1-91.2 25.9 561.7 561.7 0 0 1-101.2 9 386 386 0 0 1-71.2-6c-2-.4-3.5-1.1-3.6-3.3 1-3.8 4-7.3 6.5-10.3 9-11 19-21 29.9-30.1A242 242 0 0 1 546 236.8Z"/><path d="M718.6 474.6c0 1 .3 2.7-.5 3.5-2.2 2.4-5.1 4.2-7.6 6.4-2.6 2.2-4.8 4.9-7.5 6.9-2.7.5-4-2-2.7-4.1 2.7-3.8 6.7-6.8 10.2-9.8 2.7-2 4.5-4.7 8-3Z"/></g><path d="M520.2 243.8c41.3-4.2 83.5 2.8 120.8 21.2a194.1 194.1 0 0 1 79.2 70.7 181 181 0 0 1 26.4 118 68 68 0 0 0-38.6 14c2.8-16.5 3.5-33.4 0-49.8-.7-2.4-1.2-5.3-2.8-7.1-1.6-1.2-4.3-.8-6.2-1-8 .2-16-2.8-22.9-7a87.5 87.5 0 0 1-27.6-30.3 211 211 0 0 1-22.2-60.5c-.8-3.3-1.1-6.8-2.3-10-.9-1.4-2.4-1.8-4-1.2-3.6 1.3-7.1 3-10.7 4.3a443.8 443.8 0 0 1-82.3 22.5 588.4 588.4 0 0 1-81 8.7c-14.6.2-29.4.4-44-.4-14.3-1-28.4-2.4-42.5-4.8a232.8 232.8 0 0 1 160.7-87.3Z" fill="#3eac2c"/></g><g transform="translate(-161 -83)"></g></g></svg>