<svg xmlns="http://www.w3.org/2000/svg" viewBox="0 0 762 762" fill="none" shape-rendering="auto" width="512" height="512"><desc>"Adventurer" by "Lisa Wischofsky", licensed under "CC BY 4.0". / Remix of the original. - Created with dicebear.com</desc><metadata xmlns:dc="http://purl.org/dc/elements/1.1/" xmlns:cc="http://creativecommons.org/ns#" xmlns:rdf="http://www.w3.org/1999/02/22-rdf-syntax-ns#"><rdf:RDF><cc:Work><dc:title>Adventurer</dc:title><dc:creator><cc:Agent rdf:about="https://www.instagram.com/lischi_art/"><dc:title>Lisa Wischofsky</dc:title></cc:Agent></dc:creator><dc:source>https://www.figma.com/community/file/1184595184137881796</dc:source><cc:license rdf:resource="https://creativecommons.org/licenses/by/4.0/" /></cc:Work></rdf:RDF></metadata><mask id="szxcvp5q"><rect width="762" height="762" rx="0" ry="0" x="0" y="0" fill="#fff" /></mask><g mask="url(#szxcvp5q)"><rect fill="url(#tv9e57ix)" width="762" height="762" x="0" y="0" /><defs><linearGradient id="tv9e57ix" gradientTransform="rotate(159 0.5 0.5)"><stop stop-color="#ffdfbf"/><stop offset="1" stop-color="#c0aede"/></linearGradient></defs><path d="M396 164.8a224.8 224.8 0 0 1 104.8 42.4c6.2 4.9 12.5 9.4 18 15a225.4 225.4 0 0 1 71.8 149 58.5 58.5 0 0 1 50.9 42.2 71 71 0 0 1-27.6 76.5c-11 7.7-24.5 12-38 11.7-5 0-10-1.6-15-1.8-1.9 2.2-3.3 4.9-4.8 7.3A223.3 223.3 0 0 1 389 609.8c-11 .7-21.9 2-33 .7a223.7 223.7 0 0 1-178.8-342.3A223.4 223.4 0 0 1 352 163.5c14.6-1.4 29.4-.3 44 1.3Z" fill="#000"/><path fill-rule="evenodd" clip-rule="evenodd" d="M498.8 213.2A216 216 0 0 0 363 169c-13-.2-26.2 1.6-39 4a218 218 0 0 0-113.6 365.5 218.5 218.5 0 0 0 260.4 40.2c35-18.8 64.2-47.3 84.4-81.5l-3-1.6c-2.8-1.4-5.7-3-8-5-2.2-2-.3-5.8 2.7-4.7 1.5.7 3 1.6 4.4 2.4a55 55 0 0 0 59.6-3.6 64.5 64.5 0 0 0 25-69.8 53.1 53.1 0 0 0-24-31 52.6 52.6 0 0 0-47-2.8c-1.6.8-3.4 1.5-5 1.3-2.5-.2-2.8-4.2-.6-5.2 8-4 16.5-5.6 25.4-6.4a217 217 0 0 0-72-146.4c-4.4-4-8.7-8.1-13.9-11.3Zm107.6 196.2c2-1.2 1.3-5.1-1.4-5-2 0-4.2.8-6.2 1.6l-1.4.4a95.1 95.1 0 0 0-25.5 12.4c-2.2 2-2.2 4.4.1 6.2a92 92 0 0 0 5.2 2.8 36 36 0 0 1 13 9.2c-.2 1.9-2 3.4-3.4 4.5l-.2.2c-3.9 3-8.8 5-13.6 7-2.5 1-4.9 2-7.1 3.1-1.7.8-2.6 2.2-1.6 3.9 1 2 3.2 1.1 5 .5l.6-.2 5.4-2.3c5.4-2.3 11-4.5 15.4-8 2.7-2.1 5.1-5.1 5.4-8.7-.5-3.4-2.7-5.7-5.3-7.8a83 83 0 0 0-11.6-7.2l-1.1-.6c5.4-3 10.8-5.6 16.6-7.7l5-1.7a52 52 0 0 0 6.7-2.6Z" fill="#ecad80"/><g transform="translate(-161 -83)"><path d="M574.5 426.5a66.4 66.4 0 0 1 34 22.7c7.5-5.1 14.7-10.7 22.4-15.7l3 1.3c-.3 2.1-.2 3.6-2.2 4.9l-20 14.2a64.5 64.5 0 0 1 9.8 44c-.5 2.7-3 3.4-5.5 3.6-19.7 1-39.4 3-59 5.4-11 1.5-22.2 2-33.2 3.6l-13.6 1.8c-5 .7-9.5 1.7-14.5.3a65.2 65.2 0 0 1 78.8-86.1Z" fill="#000"/><path d="M565.5 430.4a59.8 59.8 0 0 1 50.7 65.2c-4.7.4-9.5 1-14.2 1.2-18 1.2-36 3.3-53.8 5.4 1-3 2.2-6 2.5-9.2.8-9.3-4.1-18.8-12.3-23.4a25 25 0 0 0-17.5-2.7 24.5 24.5 0 0 0-19.5 25.1 25 25 0 0 0 6.3 15.8l-7.3.7a59.3 59.3 0 0 1 35.4-74.9 60.5 60.5 0 0 1 29.7-3.2Z" fill="#fff"/><path d="M416.5 455.4a55 55 0 0 1 23.3 61.7c-5.4 1-10.4.5-15.8.5-24-.2-48-.1-72 1.5-5.9-.1-12.6 1.6-17.8-1.2-1-4.6-2.1-9.2-2.3-13.9-.3-10 2.2-20 6.8-29-6-3.9-12.3-7.5-18.2-11.6-1.9-1.4-1.7-2.7-.8-4.7 2.7-1 4.5.5 6.8 1.8l15.2 9.8a55.3 55.3 0 0 1 74.8-14.9Z" fill="#000"/><path d="M400.8 454.5a49.4 49.4 0 0 1 34.3 57.9l-5.6.1a26 26 0 0 0 2.9-14.5c-1-8.6-7.3-16.1-15.6-18.6a22 22 0 0 0-28.5 19.6c-.4 4.7 1 9 2.8 13.2-13.4 0-26.8.6-40 1.6-3.8.2-8 .7-11.6-.3-1.6-3-1.6-7.1-1.8-10.5a49.1 49.1 0 0 1 63.1-48.5Z" fill="#fff"/></g><g transform="translate(-161 -83)"><path d="M517 379.7c1-1 2.2-2.3 1.8-3.6-.3-2.5-3.5-3.1-5.2-1.5l-8.3 7.4-6.5 5.8-3 2.7a44.3 44.3 0 0 0-7.4 7.5l.9 1c.7 1 1.4 1.8 2.7 1.8 1.5 0 2.7-1.1 3.8-2l.4-.4c4.3-4 8.7-8 13.1-11.8l7.6-6.8.2-.1ZM539.7 378.7c.5-1.8-.2-3-1.6-4-2-.4-3.9.7-5.6 1.7l-1.3.8-13.4 7.7-14.4 8.4c-1.6.9-1.7 2-1.7 3.4v1.5l1.2.3c1.2.4 2.3.8 3.6 0l15.1-8.6a959.6 959.6 0 0 1 14.4-8.3 10 10 0 0 0 3.7-3ZM566.4 378.4c2-.7 4.2.2 4.4 2.6 0 2.3-1.7 2.9-3.5 3.5l-.8.3a5914.4 5914.4 0 0 0-37.6 11.6c-1.3.4-2.6.8-4 0-1.8-1.2-1.7-4.2.4-5.1 1.8-.9 3.7-1.4 5.7-2l2.6-.8 11.5-3.5 21.3-6.6ZM589.4 390.4c1-1.7.6-3-.5-4.5-2.2-.7-4.9 0-7.4.5l-2.5.5-8.5 1.7-12.4 2.5c-2 .5-3.7 1.7-3.1 3.9.6 2 2 2.4 4 2.1l12-2.3 11.5-2.3c.5 0 .9-.2 1.3-.3 2-.3 4-.7 5.6-1.8ZM405.8 394.7a231.8 231.8 0 0 0 8 5v.1c1.8 1 3.5 2.1 5 3.4 1.8 1.4 1.3 4.3-.8 5-1.8.3-3-.4-4.4-1.3l-1-.6a1584 1584 0 0 0-12.9-8.2l-4.2-2.7-.3-.2-.4-.3c-1-.7-2.4-1.6-2.4-2.9-.3-2.4 2.2-4 4.4-2.9 3 1.7 6 3.7 9 5.6ZM384 395.5c-2-.6-4-1.3-6-1.7-2.5-.5-4.1 2-3.3 4.3a8.7 8.7 0 0 0 4 2.2l.5.2h.3l12 4 12.5 3.9c2.4.8 4.8.6 5.3-2.4-.2-2.1-2-2.8-3.7-3.5h-.1l-.3-.1-.5-.2-18.2-5.8-2.6-.9ZM587.1 395.3l10.4-.3c2.5 0 5 0 7.5-.2h1.3c1.7 0 3.6 0 4.4 1.6 1.2 1.7-.3 3.7-2 4.2-3 .6-6.1.6-9.2.5H596l-3 .1a80 80 0 0 1-5 0c-1.3 0-3.2-.3-3.5-1.6a3 3 0 0 1 2.6-4.3ZM360.3 402.9c-2-.1-4.2-.2-6.1.3-1.5 1.2-1.5 3.4-.1 4.8 1.6.7 3.6.8 5.4 1h.5l10.3.6 11.7.7 2.6.1c1.8.2 3.7.4 5.4 0 2-.6 2.6-3.1 1.2-4.6-.9-1-2-1-3-1.1l-1.2-.1-12.5-.9-12.5-.8h-1.7ZM349 411.6l4.5-.3c4.1-.3 8.4-.7 12.5-.4 3 .2 3.1 4.7.3 5.4-3 .7-6 .9-9 1-1.8 0-3.6 0-5.3.3l-3.6.2c-2.4.2-5 .5-7.3.1-2.5-.4-2.8-4.4-.5-5.3a19 19 0 0 1 5.7-.8c1 0 1.8 0 2.7-.2ZM345.5 425.4c3-1 2.8-5.3-.5-5.7-2.8 0-5.7.6-8.5 1l-4 .8-2.6.4c-2.2.2-4.8.6-6 2.1-1.2 2.4.5 4.6 3 4.4 6.2-.7 12.6-1.7 18.6-3Z" fill="#000"/></g><g transform="translate(-161 -83)"><path d="M580 568.7c2.4 1 2 3.4 1.4 5.4a92 92 0 0 1-28.4 34 96.5 96.5 0 0 1-60 17.5c-26.8-1-53-12-73.4-29.3-.4-2.4-.5-3.7 1.4-5.4 51.8-7.1 106.8-15 159-22.2Z" fill="#000"/><path d="M573.9 575.5c-8.2 15-21 27.5-36.4 35a89.2 89.2 0 0 1-40.5 9.2c-24.7.2-49-9-68.6-23.9 48-6.6 97.8-13.8 145.5-20.3Z" fill="#8F2E45"/></g><g transform="translate(-161 -83)"><path d="M630.4 552.4a40.8 40.8 0 0 1 39.5 66.6 40.8 40.8 0 1 1-39.6-66.6ZM373.1 564.9a37.7 37.7 0 0 1 3 61.5 213 213 0 0 1-35-43.6c-3.3-5.9-6.7-11.2-8.8-17.6a38 38 0 0 1 40.8-.3Z" fill="#CA8D87"/></g><g transform="translate(-161 -83)"></g><g transform="translate(-161 -83)"><g fill="#000"><path d="M440.2 189.2c1.8-.1 3.6-1 4.7 1 1.6 2 1.1 3.4-.6 5a62.2 62.2 0 0 0-18.3 29.3c30-13.1 63.4-19.6 96-21 9.4-.7 18.6-.7 28 0a281 281 0 0 1 80.5 14.8c18.5 6.5 37 15.6 52 28.3a77.8 77.8 0 0 1 26.5 39.1c3.8-.2 7.3-.4 10.7 1.6 7.3 3.8 12.4 12 16 19.1a182.4 182.4 0 0 1 14.5 46.6c3.3 17.2 4.8 34.6 5.8 52 .1 13 .6 26.1-.8 39-.4 4.3-.3 8.7-1.3 12.9-1 3-4.4 2.7-6.9 3-8.3.3-17.8 1.7-25 6.2-1.3 2.5-1.5 5.6-2.7 8.2-2 2.3-4.8 4-7.2 5.8-6.3 4.3-12.3 9.1-18.5 13.5-1.8 1.1-4.1 2.7-6 .6-1.3-1.2-1.3-2.5-1-4.2 3.2-19.6 2.9-40.2 2.2-60 .1-7.8-.9-15.4-1.3-23.2a53.7 53.7 0 0 1-19.3-5A77.9 77.9 0 0 1 634 369c-6-11-9.4-23.4-8.2-36A1013.5 1013.5 0 0 1 466 346.2c-10.8-.3-21.5 0-32.2-1-14.4-.6-28.6-1.8-42.8-4-11.2-1.7-22.6-4-33.3-8-4.9 5-8 10.7-11.9 16.5-2.3 3.5-4 7.4-6.3 10.7-1 1.6-3.2 1.8-4.4.3-1.2-2.3-1.6-5.2-2.1-7.8a61.6 61.6 0 0 1 4-37c-2.4-4.5-4.6-9-5.8-14a62 62 0 0 1 6.5-44.3c9.3-17.8 24.9-32.5 41.6-43.4a182.2 182.2 0 0 1 61-25Z"/><path d="M340.5 321.2c3.1 4.3 7.2 7.2 11.8 9.7-5 6.6-9.6 13.5-14 20.5-1.2-9-1.5-17.8 1.2-26.6l1-3.6ZM718.2 480.6c2 1.1 1.6 3.3 0 4.6-8 6.8-16.4 13-25 19-1.5 1-3.2 2-4.6.2-1.8-1.7 0-3.3 1.3-4.5 3.7-3 7.8-5.5 11.6-8.4 4-2.9 7.9-6.2 11.8-9.2 1.6-1 3-2.3 5-1.7Z"/></g><path d="M436 196.1a63 63 0 0 0-15.4 27c-.3 2-1.3 4.7-.2 6.5 1.5.8 3 1.2 4.6 1.7 41.8-19 88.5-24.5 134-21.5 29 2.2 58.4 8.3 85.1 20.1 15.2 6.8 30.4 16 42 28a63.7 63.7 0 0 1 18 33l1.8 1.3c4.1-.7 7.6-1.8 11.5.4 6.4 3.7 10.8 11.5 14 18a198.7 198.7 0 0 1 14.4 50.4c2 12.6 3.5 25.3 4 38 .1 8 .9 16 .6 24-.4 10.5-.6 21-1.8 31.4-7.8.3-15.2 1-22.6 3.7-2.8 1-6.4 2.2-8.4 4.5-1.5 2.7-2 6-3 9L693 487.2c1.6-9.3 1.4-18.7 2.1-28.2.5-9.4-.6-18.6-.7-28-.2-5.4-.2-10.7-.8-16-.5-4.7-.5-9-2-13.5-5.7-.8-11.2-1-16.6-3.2a70.6 70.6 0 0 1-37-34.2 52 52 0 0 1-5.5-34.7c-2.6-3.4-7.3-2.2-10.9-1.7A964.5 964.5 0 0 1 447 340c-10-.1-20-.5-30-1.4-17-1.5-34.6-3.6-51-8.6a57 57 0 0 1-17-8 47.7 47.7 0 0 1-12.7-43c3-16 12.6-30.5 23.9-41.8a165 165 0 0 1 75.7-41Z" fill="#592454"/></g><g transform="translate(-161 -83)"></g></g></svg>