<svg xmlns="http://www.w3.org/2000/svg" viewBox="0 0 762 762" fill="none" shape-rendering="auto" width="512" height="512"><desc>"Adventurer" by "Lisa Wischofsky", licensed under "CC BY 4.0". / Remix of the original. - Created with dicebear.com</desc><metadata xmlns:dc="http://purl.org/dc/elements/1.1/" xmlns:cc="http://creativecommons.org/ns#" xmlns:rdf="http://www.w3.org/1999/02/22-rdf-syntax-ns#"><rdf:RDF><cc:Work><dc:title>Adventurer</dc:title><dc:creator><cc:Agent rdf:about="https://www.instagram.com/lischi_art/"><dc:title>Lisa Wischofsky</dc:title></cc:Agent></dc:creator><dc:source>https://www.figma.com/community/file/1184595184137881796</dc:source><cc:license rdf:resource="https://creativecommons.org/licenses/by/4.0/" /></cc:Work></rdf:RDF></metadata><mask id="9ij97gja"><rect width="762" height="762" rx="0" ry="0" x="0" y="0" fill="#fff" /></mask><g mask="url(#9ij97gja)"><rect fill="url(#hhgga4bo)" width="762" height="762" x="0" y="0" /><defs><linearGradient id="hhgga4bo" gradientTransform="rotate(51 0.5 0.5)"><stop stop-color="#ffdfbf"/><stop offset="1" stop-color="#c0aede"/></linearGradient></defs><path d="M396 164.8a224.8 224.8 0 0 1 104.8 42.4c6.2 4.9 12.5 9.4 18 15a225.4 225.4 0 0 1 71.8 149 58.5 58.5 0 0 1 50.9 42.2 71 71 0 0 1-27.6 76.5c-11 7.7-24.5 12-38 11.7-5 0-10-1.6-15-1.8-1.9 2.2-3.3 4.9-4.8 7.3A223.3 223.3 0 0 1 389 609.8c-11 .7-21.9 2-33 .7a223.7 223.7 0 0 1-178.8-342.3A223.4 223.4 0 0 1 352 163.5c14.6-1.4 29.4-.3 44 1.3Z" fill="#000"/><path fill-rule="evenodd" clip-rule="evenodd" d="M498.8 213.2A216 216 0 0 0 363 169c-13-.2-26.2 1.6-39 4a218 218 0 0 0-113.6 365.5 218.5 218.5 0 0 0 260.4 40.2c35-18.8 64.2-47.3 84.4-81.5l-3-1.6c-2.8-1.4-5.7-3-8-5-2.2-2-.3-5.8 2.7-4.7 1.5.7 3 1.6 4.4 2.4a55 55 0 0 0 59.6-3.6 64.5 64.5 0 0 0 25-69.8 53.1 53.1 0 0 0-24-31 52.6 52.6 0 0 0-47-2.8c-1.6.8-3.4 1.5-5 1.3-2.5-.2-2.8-4.2-.6-5.2 8-4 16.5-5.6 25.4-6.4a217 217 0 0 0-72-146.4c-4.4-4-8.7-8.1-13.9-11.3Zm107.6 196.2c2-1.2 1.3-5.1-1.4-5-2 0-4.2.8-6.2 1.6l-1.4.4a95.1 95.1 0 0 0-25.5 12.4c-2.2 2-2.2 4.4.1 6.2a92 92 0 0 0 5.2 2.8 36 36 0 0 1 13 9.2c-.2 1.9-2 3.4-3.4 4.5l-.2.2c-3.9 3-8.8 5-13.6 7-2.5 1-4.9 2-7.1 3.1-1.7.8-2.6 2.2-1.6 3.9 1 2 3.2 1.1 5 .5l.6-.2 5.4-2.3c5.4-2.3 11-4.5 15.4-8 2.7-2.1 5.1-5.1 5.4-8.7-.5-3.4-2.7-5.7-5.3-7.8a83 83 0 0 0-11.6-7.2l-1.1-.6c5.4-3 10.8-5.6 16.6-7.7l5-1.7a52 52 0 0 0 6.7-2.6Z" fill="#9e5622"/><g transform="translate(-161 -83)"><path d="M547.5 424.8a65.2 65.2 0 1 1 18.8 129 65.2 65.2 0 0 1-18.8-129Z" fill="#000"/><path d="M549.2 430.3a59.6 59.6 0 1 1 15.3 118.3 59.6 59.6 0 0 1-15.3-118.3Z" fill="#fff"/><path d="M381.2 447.1a55.3 55.3 0 0 1 60 45.4 54.9 54.9 0 0 1-103.8 33.1 54.2 54.2 0 0 1-4.7-32.6 54.5 54.5 0 0 1 48.5-45.9Z" fill="#000"/><path d="M378.2 453.3a49.4 49.4 0 1 1-6 95.5A49.5 49.5 0 0 1 352 467c7.1-7.1 16.3-11.9 26.2-13.7Z" fill="#fff"/><path d="M558.8 456.7c-3.9 4-6.7 8.6-6.7 14.3a20.7 20.7 0 0 0 12.5 20.4c6 2.5 12.3 1.4 17.7-2a36.3 36.3 0 1 1-52.8-31 38.5 38.5 0 0 1 29.3-1.7ZM392 467.9a35 35 0 0 1 22.7 4.3c-3 3-5.4 6.3-5.5 10.8a14.6 14.6 0 0 0 11.8 15.5c3.4.6 6.2-.5 9.4-1.4a34.4 34.4 0 0 1-14.8 31.5 33.3 33.3 0 1 1-23.6-60.7Z" fill="#000"/><path d="M527.4 489.5c2.3-1 4.8-1.3 7 .2 3.5 2.3 3.5 7.5.8 10.5s-7.8 3.2-10.4-.1c-2.8-3.4-1.3-8.7 2.6-10.6ZM379.4 495.6c4.8-1.7 9.4 3.5 7.1 8-1.6 3.6-7 4.3-9.4 1.3-2.6-3-1.5-8 2.3-9.3ZM536.5 504.7c2.5-.8 5.3-.6 7.8.1 6.1 2.4 8 11.2 3.6 16-4 4.8-11.8 5-15.8 0-4.4-5.3-2.4-13.9 4.4-16.1ZM386.5 512.7c3.4-1 7.1-.6 9.6 2.2 3.5 3.4 3.4 9.6-.6 12.6-4 3.5-10.7 1.8-13.2-2.8-2.6-4.3-.6-10.3 4.2-12Z" fill="#fff"/></g><g transform="translate(-161 -83)"><path d="M456 380.4c2.3-.1 2.9 1.7 2.7 3.6-.5 4.7-.8 9.8-2.4 14.2-1.3.4-2.6.6-4 .9-1.1-4.8 0-10.3.7-15.1.4-1.7.8-3.9 3-3.6ZM476.8 386.6c0 3.3-.4 6.4-.7 9.6 41.7.5 83.3.4 125 .8 2.2 0 4 .8 6 1.6-.7 1.5-.3 3.8-2.3 4-8 1.4-16.6.6-24.8 1-17.3.6-34.7 1-52 1.5-17 .2-34 1.2-51 1.4-3.4.4-6.1-2.7-7.3-5.5 0-4.4 1-9.1 2-13.5 1.4-2.4 3-1.6 5-.9ZM439.8 392.2c0 4.9 0 10.8-2.2 15.2-3.3 1.5-7.2 1.8-10.6 2.5l-77 14c-4.2.8-8.7 2.2-13 2.1-2.6-.5-3.3-3.7-.9-5 3.2-1.4 7-1.7 10.4-2.6l87.2-20.3 1.3-5.7c1.6-.2 3.2-.2 4.8-.2Z" fill="#000"/></g><g transform="translate(-161 -83)"><path d="M470 539.6c9.4-.6 18.4 5.2 25.2 11.2 9.6 8.8 17.3 20.1 23.5 31.5 12.6 23.6 20.8 50.1 23.6 76.7.5 4.4 1.5 8.7-2.5 11.9a80 80 0 0 1-23.8 6c-16 1.3-32.5-.9-48-4.9-2.4-.7-4.5-.9-5.4-3.6a210.2 210.2 0 0 1-18-65.9c-1-12.3-1-24.9 1.8-37a44.1 44.1 0 0 1 8.7-18.4c3.7-4.3 9.1-7.4 14.9-7.5Z" fill="#000"/><path d="M474.5 545.6a48 48 0 0 1 23.3 16.3c-14 6-30.9 9.6-45.8 5.8 1.2-6.2 3.8-13 8.2-17.5 3.6-3.8 9.1-6 14.3-4.6Z" fill="#fff"/><path d="M501.9 566.9a178.5 178.5 0 0 1 27.4 56.8c-6.3 1.3-12 4-17.5 7a93.6 93.6 0 0 0-30 27c-2.3 3.6-4.7 6.5-4.6 11-3-.8-6-1.5-9-2-8.4-18-14-37.2-16.9-56.7a124.2 124.2 0 0 1-.3-37c5.4 1 10.5 2.3 16 2 5-.5 10-1 15-2 6.9-1.2 13.3-3.9 19.9-6.1Z" fill="#8F2E45"/><path d="M527.5 629.6c1.5-.6 2.5.2 3.8.7 2.8 11.7 5 23.5 5.6 35.5a90 90 0 0 1-24.6 5.6c-10.5 1-20.3-.7-30.6-1.8a75 75 0 0 1 17.9-23c8-7.1 17.6-13.6 28-17Z" fill="#EA869E"/></g><g transform="translate(-161 -83)"><path d="M604.4 568.4c4-2.4 9.4 0 11 4.2 1.8 4.4-1.8 9.9-6.5 10.2a7.8 7.8 0 0 1-8-4.8 7.8 7.8 0 0 1 3.5-9.6Z" fill="#000"/></g><g transform="translate(-161 -83)"><path fill-rule="evenodd" clip-rule="evenodd" d="M531.3 506.7a27.9 27.9 0 1 1-42.8 24.6c-8.6-10.1-25.5-13.9-36.5-5.2-3.2 3-6.6 7.3-6.7 11.9a27.5 27.5 0 0 1-52.9 5.6 27.6 27.6 0 0 1 10.5-32.7 28 28 0 0 1 25.7-2.5 28.6 28.6 0 0 1 16 17.4 27.2 27.2 0 0 1 22.4-10c8.2-.1 15.4 3.2 22 8a28 28 0 0 1 42.3-17Zm-22.6 2.4a22.4 22.4 0 0 1 29.9 23c-.6 9.9-8.4 18.2-18.1 20.2a22.6 22.6 0 0 1-25.9-16.3c-3-11.1 3.2-23 14-26.9ZM438 525a22 22 0 0 0-23-12.8 22 22 0 0 0-12.6 37.3c6.1 6 15.8 8.1 23.7 4.9 6.8-2.7 12.2-9 13.4-16.3.5-4.6.7-9-1.5-13.1Z" fill="#000"/></g><g transform="translate(-161 -83)"><g fill="#000"><path d="M440.2 189.2c1.8-.1 3.6-1 4.7 1 1.6 2 1.1 3.4-.6 5a62.2 62.2 0 0 0-18.3 29.3c30-13.1 63.4-19.6 96-21 9.4-.7 18.6-.7 28 0a281 281 0 0 1 80.5 14.8c18.5 6.5 37 15.6 52 28.3a77.8 77.8 0 0 1 26.5 39.1c3.8-.2 7.3-.4 10.7 1.6 7.3 3.8 12.4 12 16 19.1a182.4 182.4 0 0 1 14.5 46.6c3.3 17.2 4.8 34.6 5.8 52 .1 13 .6 26.1-.8 39-.4 4.3-.3 8.7-1.3 12.9-1 3-4.4 2.7-6.9 3-8.3.3-17.8 1.7-25 6.2-1.3 2.5-1.5 5.6-2.7 8.2-2 2.3-4.8 4-7.2 5.8-6.3 4.3-12.3 9.1-18.5 13.5-1.8 1.1-4.1 2.7-6 .6-1.3-1.2-1.3-2.5-1-4.2 3.2-19.6 2.9-40.2 2.2-60 .1-7.8-.9-15.4-1.3-23.2a53.7 53.7 0 0 1-19.3-5A77.9 77.9 0 0 1 634 369c-6-11-9.4-23.4-8.2-36A1013.5 1013.5 0 0 1 466 346.2c-10.8-.3-21.5 0-32.2-1-14.4-.6-28.6-1.8-42.8-4-11.2-1.7-22.6-4-33.3-8-4.9 5-8 10.7-11.9 16.5-2.3 3.5-4 7.4-6.3 10.7-1 1.6-3.2 1.8-4.4.3-1.2-2.3-1.6-5.2-2.1-7.8a61.6 61.6 0 0 1 4-37c-2.4-4.5-4.6-9-5.8-14a62 62 0 0 1 6.5-44.3c9.3-17.8 24.9-32.5 41.6-43.4a182.2 182.2 0 0 1 61-25Z"/><path d="M340.5 321.2c3.1 4.3 7.2 7.2 11.8 9.7-5 6.6-9.6 13.5-14 20.5-1.2-9-1.5-17.8 1.2-26.6l1-3.6ZM718.2 480.6c2 1.1 1.6 3.3 0 4.6-8 6.8-16.4 13-25 19-1.5 1-3.2 2-4.6.2-1.8-1.7 0-3.3 1.3-4.5 3.7-3 7.8-5.5 11.6-8.4 4-2.9 7.9-6.2 11.8-9.2 1.6-1 3-2.3 5-1.7Z"/></g><path d="M436 196.1a63 63 0 0 0-15.4 27c-.3 2-1.3 4.7-.2 6.5 1.5.8 3 1.2 4.6 1.7 41.8-19 88.5-24.5 134-21.5 29 2.2 58.4 8.3 85.1 20.1 15.2 6.8 30.4 16 42 28a63.7 63.7 0 0 1 18 33l1.8 1.3c4.1-.7 7.6-1.8 11.5.4 6.4 3.7 10.8 11.5 14 18a198.7 198.7 0 0 1 14.4 50.4c2 12.6 3.5 25.3 4 38 .1 8 .9 16 .6 24-.4 10.5-.6 21-1.8 31.4-7.8.3-15.2 1-22.6 3.7-2.8 1-6.4 2.2-8.4 4.5-1.5 2.7-2 6-3 9L693 487.2c1.6-9.3 1.4-18.7 2.1-28.2.5-9.4-.6-18.6-.7-28-.2-5.4-.2-10.7-.8-16-.5-4.7-.5-9-2-13.5-5.7-.8-11.2-1-16.6-3.2a70.6 70.6 0 0 1-37-34.2 52 52 0 0 1-5.5-34.7c-2.6-3.4-7.3-2.2-10.9-1.7A964.5 964.5 0 0 1 447 340c-10-.1-20-.5-30-1.4-17-1.5-34.6-3.6-51-8.6a57 57 0 0 1-17-8 47.7 47.7 0 0 1-12.7-43c3-16 12.6-30.5 23.9-41.8a165 165 0 0 1 75.7-41Z" fill="#592454"/></g><g transform="translate(-161 -83)"></g></g></svg>