<svg xmlns="http://www.w3.org/2000/svg" viewBox="0 0 762 762" fill="none" shape-rendering="auto" width="512" height="512"><desc>"Adventurer" by "Lisa Wischofsky", licensed under "CC BY 4.0". / Remix of the original. - Created with dicebear.com</desc><metadata xmlns:dc="http://purl.org/dc/elements/1.1/" xmlns:cc="http://creativecommons.org/ns#" xmlns:rdf="http://www.w3.org/1999/02/22-rdf-syntax-ns#"><rdf:RDF><cc:Work><dc:title>Adventurer</dc:title><dc:creator><cc:Agent rdf:about="https://www.instagram.com/lischi_art/"><dc:title>Lisa Wischofsky</dc:title></cc:Agent></dc:creator><dc:source>https://www.figma.com/community/file/1184595184137881796</dc:source><cc:license rdf:resource="https://creativecommons.org/licenses/by/4.0/" /></cc:Work></rdf:RDF></metadata><mask id="hpdjq6do"><rect width="762" height="762" rx="0" ry="0" x="0" y="0" fill="#fff" /></mask><g mask="url(#hpdjq6do)"><rect fill="url(#sk8cfmw5)" width="762" height="762" x="0" y="0" /><defs><linearGradient id="sk8cfmw5" gradientTransform="rotate(322 0.5 0.5)"><stop stop-color="#ffdfbf"/><stop offset="1" stop-color="#c0aede"/></linearGradient></defs><path d="M396 164.8a224.8 224.8 0 0 1 104.8 42.4c6.2 4.9 12.5 9.4 18 15a225.4 225.4 0 0 1 71.8 149 58.5 58.5 0 0 1 50.9 42.2 71 71 0 0 1-27.6 76.5c-11 7.7-24.5 12-38 11.7-5 0-10-1.6-15-1.8-1.9 2.2-3.3 4.9-4.8 7.3A223.3 223.3 0 0 1 389 609.8c-11 .7-21.9 2-33 .7a223.7 223.7 0 0 1-178.8-342.3A223.4 223.4 0 0 1 352 163.5c14.6-1.4 29.4-.3 44 1.3Z" fill="#000"/><path fill-rule="evenodd" clip-rule="evenodd" d="M498.8 213.2A216 216 0 0 0 363 169c-13-.2-26.2 1.6-39 4a218 218 0 0 0-113.6 365.5 218.5 218.5 0 0 0 260.4 40.2c35-18.8 64.2-47.3 84.4-81.5l-3-1.6c-2.8-1.4-5.7-3-8-5-2.2-2-.3-5.8 2.7-4.7 1.5.7 3 1.6 4.4 2.4a55 55 0 0 0 59.6-3.6 64.5 64.5 0 0 0 25-69.8 53.1 53.1 0 0 0-24-31 52.6 52.6 0 0 0-47-2.8c-1.6.8-3.4 1.5-5 1.3-2.5-.2-2.8-4.2-.6-5.2 8-4 16.5-5.6 25.4-6.4a217 217 0 0 0-72-146.4c-4.4-4-8.7-8.1-13.9-11.3Zm107.6 196.2c2-1.2 1.3-5.1-1.4-5-2 0-4.2.8-6.2 1.6l-1.4.4a95.1 95.1 0 0 0-25.5 12.4c-2.2 2-2.2 4.4.1 6.2a92 92 0 0 0 5.2 2.8 36 36 0 0 1 13 9.2c-.2 1.9-2 3.4-3.4 4.5l-.2.2c-3.9 3-8.8 5-13.6 7-2.5 1-4.9 2-7.1 3.1-1.7.8-2.6 2.2-1.6 3.9 1 2 3.2 1.1 5 .5l.6-.2 5.4-2.3c5.4-2.3 11-4.5 15.4-8 2.7-2.1 5.1-5.1 5.4-8.7-.5-3.4-2.7-5.7-5.3-7.8a83 83 0 0 0-11.6-7.2l-1.1-.6c5.4-3 10.8-5.6 16.6-7.7l5-1.7a52 52 0 0 0 6.7-2.6Z" fill="#f2d3b1"/><g transform="translate(-161 -83)"><path d="M556 424a65.3 65.3 0 0 1 65.5 73.8c-.4 2.7-3.2 3.6-5.5 3.8-23 1-45.4 3.7-68 6.3-13.2 1-26.2 2.8-39.2 4.6-4.6.5-8.6 1.7-13.1 0A65 65 0 0 1 556 424Z" fill="#000"/><path d="M566.2 430.5a60 60 0 0 1 50.2 60.5c-.2 1.4.1 3.5-.7 4.6-4.2.7-8.5.7-12.7 1.1-18.4 1.2-36.6 3.4-54.9 5.6a31 31 0 0 0 2.6-10.3 24.8 24.8 0 0 0-39.5-20.8 24.4 24.4 0 0 0-9.8 20.8c0 6 2.6 11.2 6.4 15.7l-7.3.8a59.2 59.2 0 0 1 65.7-78Z" fill="#fff"/><path d="M416 455a55 55 0 0 1 23.8 62c-4 1.1-7.7.7-11.8.7-25.4-.3-50.6-.3-76 1.4-5.6-.3-13 1.8-17.8-1.4a55.2 55.2 0 0 1 81.7-62.7Z" fill="#000"/><path d="M410.4 458.5c19 10.1 29.7 32.9 24.7 53.9l-5.7.1a24.4 24.4 0 0 0 2.8-15.5 22.4 22.4 0 0 0-15.4-17.7 22 22 0 0 0-28.5 20.7c-.3 4.4 1 8.2 2.8 12.1-15.4.1-30.7 1-46.1 2-1.8-.2-5.8.5-6.1-2a49 49 0 0 1 71.6-53.6Z" fill="#fff"/></g><g transform="translate(-161 -83)"><path d="M397 373.1c6.9.2 14.2 2.9 18 9 1 1.4.6 3.6.7 5.3-6.3.2-12.5.4-18.6 1.9a112 112 0 0 0-41.7 20.1 90 90 0 0 0-22 23c-1.3 2.3-2.3 5.1-4.2 7-1.2.2-2.6.2-3.8.3 0-1.8-.3-3.4.2-5.2a88.7 88.7 0 0 1 38-50.8c10-5.8 21.8-11 33.5-10.6ZM578.5 411.7a71.4 71.4 0 0 1 30 10l-.2 4.7c-4 1.6-7.3-.1-11.3-.8-6.8-1.2-13.9-1.2-20.8-1a197.5 197.5 0 0 0-84 23.7c-1.4.6-3 1-4.4 1.5-2.6-5.4-3.6-11-.1-16.2 5-7.6 15.2-12.4 23.6-15.4 21.3-7.4 44.9-9 67.2-6.5Z" fill="#000"/></g><g transform="translate(-161 -83)"><path d="M517.9 557.3c2.3.2 3.1 2.7 2.3 4.7-1.4 3.5-3.2 7-4.7 10.5-8.4 19.3-19.5 37-31.8 54.2-1.4 1.8-2.9 4-4.8 5.2-3 .8-6.1.8-8.6-1.1a129.4 129.4 0 0 1-24.4-22.8c-7-7.8-13.4-16-18.8-25.1-1-2.2-2.6-4.5-1.2-6.9 1-1.5 3.2-2 4.9-2.5 11-3.1 22.1-6.5 33.3-9.3a235 235 0 0 1 36-5.7c5.8-.5 11.8-1.4 17.8-1.2Z" fill="#000"/><path d="M513.8 563c-9 21.2-21 40.8-34.3 59.5-1 1.1-2.2 2.8-3.7 3-2.2.6-3.7-.8-5.4-1.9a155 155 0 0 1-22.7-22.3A137.4 137.4 0 0 1 431 579c15-4 29.9-8.6 45.1-11.4 12.5-2.5 25-3.3 37.6-4.6Z" fill="#8F2E45"/></g><g transform="translate(-161 -83)"></g><g transform="translate(-161 -83)"><path d="M569 416.3c10.7-.3 21.4 0 32-.2 14-.7 28-.4 42-.6 3.9.2 9-.1 12.2 2.4 2.4 1.6 2.2 5.5 2.4 8-.1 4.4-.3 9.5-2.4 13.4-5 2-11.4 1.2-16.8 1.9.4 12.3 1.7 24.6 1.3 36.8-.7 14-3.7 28-10.3 40.4-8.1 13-20 24.3-33.6 31.5a77 77 0 0 1-33.3 7.7c-6.3.2-12.1.5-18.3-.8-9.4-2-18.8-4.4-27-10A81.6 81.6 0 0 1 492 516a193.1 193.1 0 0 1-13.3-43.9c-.5-2.3-2.4-3.5-4.3-4.4-6.7-3-15-.6-18.8 5.6-.8 2.4-1 5-1.2 7.6-.6 7.6-2.2 15.3-3.9 22.8-3.1 13.6-9 26.3-16.8 37.8a50.8 50.8 0 0 1-16.2 14.8 75.6 75.6 0 0 1-34.4 10.3c-7.2-.2-14.2-.4-21.1-2.5-5.5-1.3-10.5-4.8-15.2-8a57.7 57.7 0 0 1-15.3-16.7c-5.3-8.3-9.3-17.3-12.2-26.7a97.5 97.5 0 0 1-5.2-28.7c-4.6.7-9.4 2.2-14 2-4.4-.9-5.3-7.6-5.5-11.1.1-2.4-.1-6.8 2.7-7.7 21.6-9.8 44.4-17 67.5-22.4 17-3.7 34.8-8.3 52.3-6.7 11.2 1 22.8 4 31.7 11 3.2 2.5 5.5 7 9.4 7.7 7 1.8 14.5-1.3 20.9-4 3.6-10 10-17.3 19-22.8a89.3 89.3 0 0 1 20.8-8.3c16.7-4 33.1-4.6 50.2-5.5Z" fill="#000"/><path d="M307.1 478.2c1.2-1.2 3.4 0 2.4 1.6-1.2 1.2-3.4 0-2.4-1.6Z" fill="#000"/><ellipse cx="605" cy="457.5" rx="14" ry="10.5" fill="#fff"/><ellipse cx="411" cy="476.1" rx="11" ry="8.1" fill="#fff"/></g><g transform="translate(-161 -83)"><path d="M468.5 215.1c7 1.1 13.9 1 20.8 2.5 12 2.4 24 5.8 36 8.9 32.6 8.8 65.4 16.6 98.7 22.4 21.5 3.8 44 6.9 64.6 14.5 11.4 4 22.3 9.1 32.6 15.3 4.8 3.7 8.7 9 12.1 14a255.4 255.4 0 0 1 31.3 68.7 497.2 497.2 0 0 1 16 64.6c2.2 7.6.6 16.3-.6 24-3.4 19-10 37-18.7 54.3a307 307 0 0 1-38.5 56.5A187.8 187.8 0 0 1 691 591a129.6 129.6 0 0 1-31.3 17.7c-1.7.4-3 1.4-4.3-.3-1.3-1-.3-3.6 0-5 3.4-11.4 5.8-23 7.3-34.7 1.2-8.9 1.2-17.9 1.7-26.8-.2-10-.6-20-2-30a195.8 195.8 0 0 0-36.4-91.2c-2.1 30.3.4 61.3 8.5 90.6.9 3.4 2.4 6.4 3.7 9.6.4 3.3-2.2 4.6-5 3.5a276.5 276.5 0 0 1-139.1-109.7 162 162 0 0 0-16 26.4 190.4 190.4 0 0 0-16.5 96c-1 1.1-2 3.5-3.8 3.6-2 .3-3-1.4-4-2.7-5.6-7.5-11-15.1-15.8-23.2a332.2 332.2 0 0 1-28.5-65.4c-7.1-23.2-13-47.3-15.1-71.6a287.3 287.3 0 0 0-51.6 88.8 169 169 0 0 0-10.6 49.3c0 3.2-3.7 3.1-5.4 1a135.3 135.3 0 0 1-25-36c-12.9-27-17.6-57.3-15-87l-11.6 8.3a134.4 134.4 0 0 0-27.4 28.6c-1.4 1.8-2.2 3.7-4.8 3.3-2.8-1-1.1-4.1-1-6.2 3.1-12.7 8.4-25 14.4-36.5a287 287 0 0 1 59.7-75.3c29-26.3 63.2-48.6 100.5-61.2 4.6-9 9.8-18.2 16-26.2a37.8 37.8 0 0 1 16.6-12.6c6.3-2.1 12.7-2.1 19.2-1Z" fill="#000"/><g fill="#e5d7a3"><path d="M471.5 221c16.5 1.2 33.3 6.2 49.4 10.4 28 7.5 56 14.5 84.6 20 26.7 5.5 54 8 79.4 16.8 10.2 3.5 20.6 7.4 29.8 13 7 4.4 11.2 10.8 15.7 17.4 9.5 15 17.2 31.1 23.2 47.9a565.8 565.8 0 0 1 21.5 79.3c1.5 7.8.6 15.2-.8 23-2.2 12-5.6 23.8-10.3 35.2-9 23-22.5 44-37.7 63.3a270 270 0 0 1-25.6 28.4 155.5 155.5 0 0 1-38.7 26.5 228 228 0 0 0 5.6-95.3 195.3 195.3 0 0 0-41.9-95.7c-1.5-1.9-3.9-1.3-4.9.7-2.9 35.8-1 71.2 10.1 105.6a270.4 270.4 0 0 1-130.5-103.9c-18.7-29-31-61.9-33.9-96.4-.2-2.6-2.4-3.7-4.7-2.6-1.4 1.7-1 3.5-1 5.5 3.2 31.6 13.9 61.9 30 89.2-5 7.2-10 14.4-14.2 22.3a185 185 0 0 0-20.3 68.4c-1.3 10.4-.9 20.6-.5 31a221.1 221.1 0 0 1-24.4-41.5c-14-30-23.5-62-29-94.6a307 307 0 0 1-3.8-41.9 229 229 0 0 1 6.4-51 218 218 0 0 1 23.5-56.5c5-8.1 11-17.9 19.5-22.5 7-4.2 15.8-3 23.5-2Z"/><path d="M413 262.6a216.8 216.8 0 0 0-20.2 90.4c0 5.7.6 11.4.7 17.1a295.5 295.5 0 0 0-47 72.4c-7.5 16.5-13.8 34-17.4 51.7-1 4.7-1.4 9.5-2.3 14.2-25.3-29.1-36.7-69.2-34.6-107.4 0-4.8 1.4-8.7-.2-13-1.4-1.4-3.6-.9-5.1 0-4 2-7.7 5-11.4 7.5-9 6-16.2 13.1-23.7 20.8a174 174 0 0 1 13-27.7c19.6-34.5 48-64.4 79.6-88.2a275.5 275.5 0 0 1 68.6-37.8Z"/></g></g><g transform="translate(-161 -83)"></g></g></svg>