<svg xmlns="http://www.w3.org/2000/svg" viewBox="0 0 762 762" fill="none" shape-rendering="auto" width="512" height="512"><desc>"Adventurer" by "Lisa Wischofsky", licensed under "CC BY 4.0". / Remix of the original. - Created with dicebear.com</desc><metadata xmlns:dc="http://purl.org/dc/elements/1.1/" xmlns:cc="http://creativecommons.org/ns#" xmlns:rdf="http://www.w3.org/1999/02/22-rdf-syntax-ns#"><rdf:RDF><cc:Work><dc:title>Adventurer</dc:title><dc:creator><cc:Agent rdf:about="https://www.instagram.com/lischi_art/"><dc:title>Lisa Wischofsky</dc:title></cc:Agent></dc:creator><dc:source>https://www.figma.com/community/file/1184595184137881796</dc:source><cc:license rdf:resource="https://creativecommons.org/licenses/by/4.0/" /></cc:Work></rdf:RDF></metadata><mask id="s8ar6xox"><rect width="762" height="762" rx="0" ry="0" x="0" y="0" fill="#fff" /></mask><g mask="url(#s8ar6xox)"><rect fill="url(#tbmyqavp)" width="762" height="762" x="0" y="0" /><defs><linearGradient id="tbmyqavp" gradientTransform="rotate(191 0.5 0.5)"><stop stop-color="#ffdfbf"/><stop offset="1" stop-color="#c0aede"/></linearGradient></defs><path d="M396 164.8a224.8 224.8 0 0 1 104.8 42.4c6.2 4.9 12.5 9.4 18 15a225.4 225.4 0 0 1 71.8 149 58.5 58.5 0 0 1 50.9 42.2 71 71 0 0 1-27.6 76.5c-11 7.7-24.5 12-38 11.7-5 0-10-1.6-15-1.8-1.9 2.2-3.3 4.9-4.8 7.3A223.3 223.3 0 0 1 389 609.8c-11 .7-21.9 2-33 .7a223.7 223.7 0 0 1-178.8-342.3A223.4 223.4 0 0 1 352 163.5c14.6-1.4 29.4-.3 44 1.3Z" fill="#000"/><path fill-rule="evenodd" clip-rule="evenodd" d="M498.8 213.2A216 216 0 0 0 363 169c-13-.2-26.2 1.6-39 4a218 218 0 0 0-113.6 365.5 218.5 218.5 0 0 0 260.4 40.2c35-18.8 64.2-47.3 84.4-81.5l-3-1.6c-2.8-1.4-5.7-3-8-5-2.2-2-.3-5.8 2.7-4.7 1.5.7 3 1.6 4.4 2.4a55 55 0 0 0 59.6-3.6 64.5 64.5 0 0 0 25-69.8 53.1 53.1 0 0 0-24-31 52.6 52.6 0 0 0-47-2.8c-1.6.8-3.4 1.5-5 1.3-2.5-.2-2.8-4.2-.6-5.2 8-4 16.5-5.6 25.4-6.4a217 217 0 0 0-72-146.4c-4.4-4-8.7-8.1-13.9-11.3Zm107.6 196.2c2-1.2 1.3-5.1-1.4-5-2 0-4.2.8-6.2 1.6l-1.4.4a95.1 95.1 0 0 0-25.5 12.4c-2.2 2-2.2 4.4.1 6.2a92 92 0 0 0 5.2 2.8 36 36 0 0 1 13 9.2c-.2 1.9-2 3.4-3.4 4.5l-.2.2c-3.9 3-8.8 5-13.6 7-2.5 1-4.9 2-7.1 3.1-1.7.8-2.6 2.2-1.6 3.9 1 2 3.2 1.1 5 .5l.6-.2 5.4-2.3c5.4-2.3 11-4.5 15.4-8 2.7-2.1 5.1-5.1 5.4-8.7-.5-3.4-2.7-5.7-5.3-7.8a83 83 0 0 0-11.6-7.2l-1.1-.6c5.4-3 10.8-5.6 16.6-7.7l5-1.7a52 52 0 0 0 6.7-2.6Z" fill="#f2d3b1"/><g transform="translate(-161 -83)"><path d="M550.3 424.4a65.4 65.4 0 1 1 13 130 65.4 65.4 0 0 1-13-130Z" fill="#000"/><path d="M549.3 430.3a59.7 59.7 0 1 1 15.1 118.3 59.7 59.7 0 0 1-15.1-118.3Z" fill="#fff"/><path d="M381.2 447.1a55.3 55.3 0 0 1 60 45.9A54.9 54.9 0 0 1 341 532a57 57 0 0 1-9.1-28 55.1 55.1 0 0 1 49.4-57Z" fill="#000"/><path d="M376.5 453.7a49.3 49.3 0 1 1 20.8 96.4 49.3 49.3 0 0 1-20.8-96.4Z" fill="#fff"/><path d="M576.4 464.4a24.7 24.7 0 0 1 17.7 1.5c10 4.7 16.7 17.4 12.9 28.1a24.3 24.3 0 0 1-36.6 14.6 24.5 24.5 0 0 1 6-44.2ZM408.5 478.5c12.7-1.6 25 8.5 25.3 21.5 1 12.4-9.3 24.2-21.8 24.3a23 23 0 0 1-23.9-22.3 22.8 22.8 0 0 1 20.4-23.5Z" fill="#000"/></g><g transform="translate(-161 -83)"><path d="M414.2 389.8c-5.5-7.2-14.5-9.3-23.2-8.3a68 68 0 0 0-34.5 17 87.2 87.2 0 0 0-24.7 35.3c-.7 2-1.3 4.7 1 5.8 2.1.2 2.9 0 4.1-1.7a117.4 117.4 0 0 1 43.6-35.4 61 61 0 0 1 26.5-5.7c1 0 2.1.2 3.2.4 1.7.3 3.3.6 5 .3 2.8-2.2.7-5.3-1-7.5v-.2ZM592.9 408.1a147.2 147.2 0 0 0-59-19c-10-.7-21.4-.1-30.6 4.2-6.8 3.1-12.4 8.5-13.6 16.2l-.1 1c-.4 2.8-1 6.7 1.3 8.7 2 .8 3.6-.3 5.2-1.4l2.3-1.4a111 111 0 0 1 45.6-9.7c15.5 0 31.4 2.1 46 7.2l.5.1c1.5.4 2.7.8 3.9-.6 1.8-1.9.5-4.2-1.5-5.2Z" fill="#000"/></g><g transform="translate(-161 -83)"><path d="M517.9 557.3c2.3.2 3.1 2.7 2.3 4.7-1.4 3.5-3.2 7-4.7 10.5-8.4 19.3-19.5 37-31.8 54.2-1.4 1.8-2.9 4-4.8 5.2-3 .8-6.1.8-8.6-1.1a129.4 129.4 0 0 1-24.4-22.8c-7-7.8-13.4-16-18.8-25.1-1-2.2-2.6-4.5-1.2-6.9 1-1.5 3.2-2 4.9-2.5 11-3.1 22.1-6.5 33.3-9.3a235 235 0 0 1 36-5.7c5.8-.5 11.8-1.4 17.8-1.2Z" fill="#000"/><path d="M513.8 563c-9 21.2-21 40.8-34.3 59.5-1 1.1-2.2 2.8-3.7 3-2.2.6-3.7-.8-5.4-1.9a155 155 0 0 1-22.7-22.3A137.4 137.4 0 0 1 431 579c15-4 29.9-8.6 45.1-11.4 12.5-2.5 25-3.3 37.6-4.6Z" fill="#8F2E45"/></g><g transform="translate(-161 -83)"></g><g transform="translate(-161 -83)"><path fill-rule="evenodd" clip-rule="evenodd" d="M577 416.1a79.9 79.9 0 0 1 39 141 79.6 79.6 0 0 1-92.5 6.4 80 80 0 0 1-38.2-69.3c-5-5.3-10.7-9.6-18.3-9.7-7.8.1-14.3 5.7-17.2 12.6.7 6.7 1.5 13.3.6 20a69.8 69.8 0 0 1-135.8 15.3 69.7 69.7 0 0 1 21-75.7 71 71 0 0 1 46.4-16.8 69.8 69.8 0 0 1 65 47.4c4.9-5.7 11.3-10 19-10 7.4-.3 14.2 2.6 19.7 7.3 1.7-8.7 3.8-17 8-25a80 80 0 0 1 83.3-43.5Zm-25.5 7.8a72.4 72.4 0 0 1 85.9 80 72.7 72.7 0 1 1-85.9-80Zm-147.4 28a62.6 62.6 0 1 0-37.9 118.9c15.5 3.4 32.1 1.3 45.9-6.7a63.3 63.3 0 0 0 30-41.9 62.7 62.7 0 0 0-38-70.4Z" fill="#000"/></g><g transform="translate(-161 -83)"><g fill="#000"><path d="M667.8 98c1.7.8 4.2 1.4 5 3.2a3 3 0 0 1-2 4.3c-4.2.8-8.6 1.2-12.8 2.5a81.4 81.4 0 0 0-41.9 27.8c16-3 32.1-.5 47 5.5 3.7-.7 7.2-.8 11-.5a93 93 0 0 1 42 14.1 87 87 0 0 1 34.4 40.7A70.7 70.7 0 0 1 755 234a65.8 65.8 0 0 1-26 42.6 146.7 146.7 0 0 1 17.2 34.2c1.7 4.8 4.5 8.4 7 13 16.2 28.9 26.7 61.2 30 94.2 1 15.1 1 30.6-2.6 45.5-.7 2.3-1.4 5.5-4.5 5.2-2.9-1-5.5-3.1-8.4-4.4-9.7-5-21-5.6-31.6-3.6A51.8 51.8 0 0 1 739 483c-1.2 14-6.5 27-14.3 38.6-8 12-18.7 22-31.7 28.4-1.5.7-3.2 1.5-5 1.4-1.4-.5-2.5-1.8-2.1-3.4 1.1-3.9 3.6-7.3 5-11.1 10-24.4 12.3-52.1 9.2-78-.8-4.4 1.4-7.2 2.8-11 3.2-8.4 5.8-17.1 8.3-25.7l-23 8c-2.2.5-4.6 1.6-6.6.2-.8-5.7-.4-11.6-.7-17.4-1.1-15.6-3-30.8-4.7-46.2-.9-7.2-2.3-14.3-3.4-21.5a35.2 35.2 0 0 1-16.8 11.8c-3.2-.8-3.5-3.4-1.1-5.5 8.8-3.3 15-10.4 18.9-18.8 6.6-14.7 6.6-30 5.2-45.8 0-3.6 4.7-3.9 5.5-.6A97.7 97.7 0 0 1 681 330c-1 3.1-2.7 6-3.9 9.2-.2 1.6.4 3.4.6 5 4 18.3 5.8 37 7.8 55.8 1 8.3 1 16.7 1.2 25 8.8-3 17.4-6.3 26.1-9.3.9-3 1.4-6.3 3-9 1.4-1 2.3-1.2 3.8-.3 1.1 1.9.5 3.8 0 5.8a370.5 370.5 0 0 1-14.1 43.7c3.5 29 1.3 59.9-10.9 86.7a82.3 82.3 0 0 0 34-41c3.9-10.1 6.2-22 3.9-32.6-.8-3.9-2.2-7.7-4.4-11-1.1-2.1-2.8-3.5-2.3-6 1.5-1.2 2.2-1.7 4.1-1 1.5 1.2 2.7 3.1 3.9 4.7 10.5-2 21-2.3 31.2 1.3 3.5 1.3 6.9 3 10.1 4.7 4.7-20.3 3.4-40.5-.1-60.9-4.1-21.7-11-43-20.9-62.8 2.5 14.3 4.9 28.4 5.5 43 .3 5.9 1.2 11.9-.1 17.7-1.8-.3-3.8.4-4.7-1.6-.7-3.3-.3-6.8-.5-10.1-1-17.6-3-35-7-52.2-4.3-17.8-10.7-36-20.6-51.4a72.8 72.8 0 0 0-29.6-27.6c-7-3.3-14.6-4.4-22.4-4.3 2.5 4.4 5.3 8.9 7.1 13.7.7 1.7.4 2.8-.4 4.3-1.8.6-3.5.6-4.4-1.4-3-6-5.5-12-10.1-17-4.5-6.8-10-13-17.7-16.3-4.6-1.9-9.8-3.5-14.7-2a49 49 0 0 0-16.6 9.4c-2.5 1-4.2-2-2.8-4 2-2.8 5.6-4.6 8.5-6.5-4.8-4-10-7.3-15.9-9.4-10.1-3.7-21-5.2-31.7-6-13-.8-24.7 3-36.8 7.2-3.9 1.2-7.4 3.4-11.2 4.8-2.5.8-3.9-2.9-2.1-4.3 6.6-4.7 16.1-6.8 23.7-10-4.6-.8-9-1-13.6-.7-22.6 1.8-46 4.2-68 10.1a237 237 0 0 0-38.9 13.6c-12.3 5.9-24.7 13-34.9 22.2a56.2 56.2 0 0 0-17.7 27c-3.3 11.7-1 25.6 1 37.3A361.8 361.8 0 0 1 427 285c3-1.7 6.6-4.2 10.1-4.2 2.2 1.3 3 2.8 2 5.3-3 7.4-6.6 14.7-9.1 22.4 9.1-6.1 18.2-12.2 27.8-17.6 5.7-3.2 11.8-6.7 18-8.7A300.3 300.3 0 0 1 509 243c1.4-1.2 3.2-2.5 4.8-.8 2 1.6-.5 4.4-1.8 5.8a308 308 0 0 0-30.6 36.4 91.9 91.9 0 0 0-14.3 25.8c9.1-4.3 18-8.9 27.5-12.6 5.2-2 9.7-4.6 15.4-5l1.8 2.7c-2.4 3-5.6 3.2-8.9 4.6a360 360 0 0 0-33.3 15.7c-2.4 1-5 2.8-7.6 1.6-1.2-1.3-1.6-2.3-1.3-4.2 1.2-8.3 5.5-16 9.8-23-14 7.5-27.4 16-40.1 25.4-2 1.4-3.6 2.9-6.3 1.6-2.2-2.2-1-5.6-.4-8.3a203 203 0 0 1 8-20 354.5 354.5 0 0 0-51.7 40.4c-1.8 1.3-2.9 3.3-5.4 2.4-2.5-3.7-2.5-9.3-3.5-13.5-9.2 9-16.4 19.5-24.7 29.4-3.3 3.9-5.8 8.2-8.8 12.2-1 1.4-2.5 1.3-4 .9-1.9-1.8-1.6-4.6-2-7a57.6 57.6 0 0 1-26-46.5c-.4-14.4 4.6-28 12.5-40 10-15 24.6-27 40.6-35.3 1.8-.8 4.4-2.2 5.9-.3 1.6 2 1.2 3.2-.2 5a157 157 0 0 0-21.2 37.8c-3.9 10.5-6.5 23-4 34.2 8.7-15.2 22.2-28 36.9-37.3 2.3-2 3.7-5 5.7-7.3a115.6 115.6 0 0 1 34.4-26.7 199 199 0 0 1 44.4-17.5c18-5.5 36.5-8.2 55.2-10.3-3-3.1-5.9-6.2-8.2-10a61.5 61.5 0 0 1-8.7-34.3c.7-14.1 5.3-28 13.8-39.3a55.5 55.5 0 0 1 34.6-22.5c3.2-.8 6.6 3.5 4.2 6.3a87.9 87.9 0 0 0-14.6 38.5c-.6 6.2-.3 12.4.5 18.6a50 50 0 0 1 16-13.3c2.6-1.6 5.2-2.3 6.7-5.2 13.4-25 37.6-44.4 65.1-51.3 13.8-3.4 29.1-3.4 42.6 1.3Z"/><path d="M593 274.3c1.3 1.1 2.2 1.8 2.1 3.6.3 11.8 1 24.8 5.4 35.8-2.6 1-4.5 2-6-1.2-3.4-9.2-4.2-19.7-4.8-29.5.2-3.5-1-7.4 3.3-8.7ZM574.3 281.5c1.1 1 3 2.8 1.7 4.3-2.6 3.1-6.6 5-9.8 7.5-9.2 6.8-19 13.8-26.8 22.2-1 1-1.7 1.9-3.3 1.6-2.2-1-3.3-3.8-4.4-5.9-3.2-7-6-14.6-6.7-22.3.3-1.1 0-3.2 1.1-3.9 1.7-1.3 3.8-.1 4 2 1.1 8.2 3.5 15.6 7 23.1 8.2-8 17.1-15 26.3-21.7 3.6-2.6 6.8-5.2 11-7ZM624 301.6c3 .8 5 4.3 6.7 6.6 6.4 9.4 13.6 18.6 19.2 29 1.4 2.6 2.4 5.4 3 8.4-1.3.5-2.7.8-4.1.9-2.2-3-3.3-6.8-5.3-10-6.2-9.9-13.4-19.2-20.2-28.7-4 5.4-7.8 11.3-12.8 15.7-2.8 1-3.2-.9-4.4-2.9 3.7-4.8 7.8-9.2 11.2-14.3 1.6-2.2 3.5-5.4 6.7-4.8ZM311 417c2.3-.3 3 1.3 4.4 2.6-2 6.7-2.8 13.5-3.3 20.4-.4 2.8-.5 6-1.7 8.5-2 2.2-5 3.5-7.4 5.4a64.1 64.1 0 0 0-15.1 18c-7.4 12.5-12.1 26.7-13.5 41.1-.5 3.8.3 8.5-1.4 12-1.6 2.2-3.8.9-5.4-.6a50.1 50.1 0 0 1-14.3-29.2 72.3 72.3 0 0 1 27-64.9c8.8-6.9 19.6-12 30.7-13.3ZM720.9 576.9c4.9 1 10 2.2 15.1 2.6 2.8 0 5.3-.8 8-.8 1.8 1.7 1.9 4.1 1 6.3-1.2 3.3-4 6-6.4 8.6 9.2-.2 18.3 1 26.7 5.1 7 3.3 12.8 8.8 16.2 15.8a54 54 0 0 1 4.6 28.5 146 146 0 0 1-10 38.8c-1.3-.5-3.4-.4-4-2-1.3-3.5-2-7.2-3.5-10.6a79.4 79.4 0 0 0-67.6-47.7c-3.2-.2-6.7.1-9.9-.5-2.1-2-1.8-3.8 0-5.8 7.1-8 13.8-16.4 20-25.2 2.3-3.4 3.9-7.3 6.1-10.8.8-1 2.3-2.5 3.7-2.3Z"/></g><g fill="#6a4e35"><path d="M659.5 101.6a85 85 0 0 0-41 23 89 89 0 0 0-25.2 50.4c-2 12.7-.6 26 3.3 38.2-7.2-1.2-14.2-2.6-21.6-2.6-2.4-.1-4.5.3-6.5-1a65.7 65.7 0 0 1-13-10.1 71.8 71.8 0 0 1 1.3-26.7A93.9 93.9 0 0 1 582 128a95 95 0 0 1 49-26.6c9.3-2 19-1.9 28.4.1Z"/><path d="M544.3 109.8c-3 5.6-6.1 11.2-8.3 17.2a75 75 0 0 0-2.6 46.8 71 71 0 0 0 27.5 37.8l-4.2.9c-3.7-2.4-7-5-11.7-5a128 128 0 0 0-20.5 1 45 45 0 0 1-18.7-29.3c-3-15.7.2-32.2 8.6-45.8 7-11.1 17.1-20 29.9-23.6ZM635 140.5a75 75 0 0 1 54.8 28.6 65.3 65.3 0 0 1 13.5 43.9c0 2-.5 4.5.4 6.4 1.7 2 4.4 1 4.8-1.5 1.6-9.7.5-20-2.3-29.4a75.3 75.3 0 0 0-33-42c2.9.5 5.8.7 8.6 1.2a84.6 84.6 0 0 1 62.5 48c5.4 12 6.9 25.4 5 38.3a61.3 61.3 0 0 1-23.6 38 67.7 67.7 0 0 0-35.7-24.8c-6.5-1.9-12.8-1.4-19.5-1.3a45.2 45.2 0 0 0-20-16.6c-7.2-3-14.3-3.5-21.6-.5a60.2 60.2 0 0 0-25.6-14 80.4 80.4 0 0 1 8.4-72.8c7.9-1 15.3-2.3 23.3-1.5Z"/><path d="M555 158.5h.1a85.1 85.1 0 0 0-6 33.9c-4-5.6-7.8-11.8-9.5-18.5 3.2-7.1 9-11.3 15.4-15.4ZM536 213.3c4.6-.3 9 0 13.6.8-7.6 3.1-17 5.2-23.8 9.9-1.7 1.4-.3 5 2.2 4.2 3.8-1.3 7.3-3.5 11.2-4.7 12.1-4.2 23.8-8 36.8-7.2 10.8.8 21.6 2.3 31.8 6 5.8 2.1 11 5.4 15.8 9.4-2.9 1.9-6.5 3.7-8.5 6.5-1.4 2 .3 5 2.8 4a49 49 0 0 1 16.6-9.4c5-1.5 10.1.1 14.7 2a41.4 41.4 0 0 1 17.7 16.3c4.6 5 7 11 10 17 1 2 2.7 2 4.5 1.4.8-1.6 1-2.6.4-4.3-1.8-4.8-4.6-9.3-7-13.7 7.7-.1 15.3 1 22.4 4.3a72.8 72.8 0 0 1 29.4 27.6c10 15.4 16.4 33.6 20.6 51.4 4.1 17.2 6.2 34.6 7 52.2.3 3.3 0 6.8.6 10.1 1 2 2.9 1.3 4.7 1.6 1.3-5.8.4-11.8 0-17.7-.5-14.6-2.9-28.7-5.4-43a239.6 239.6 0 0 1 20.9 62.8c3.5 20.4 4.8 40.6.1 60.9a87.2 87.2 0 0 0-10-4.7 59.2 59.2 0 0 0-31.4-1.3c-1.1-1.6-2.3-3.5-3.8-4.7-2-.7-2.6-.2-4.1 1-.5 2.5 1.2 3.9 2.3 6 2.2 3.3 3.6 7.1 4.4 11 2.3 10.7 0 22.5-3.9 32.5a82.3 82.3 0 0 1-34 41.1 163.4 163.4 0 0 0 10.9-86.7 370.5 370.5 0 0 0 14.2-43.7c.4-2 1-4 0-5.8-1.6-.9-2.5-.6-4 .3-1.5 2.7-2 6-2.9 9-8.7 3-17.3 6.3-26 9.3-.3-8.3-.3-16.7-1.3-25-2-18.8-3.8-37.5-7.8-55.8-.2-1.6-.9-3.4-.6-5 1.2-3.2 2.9-6 4-9.2 4.8-13.8 5-29.3 3.3-43.6-.8-3.3-5.6-3-5.5.6 1.4 15.8 1.4 31-5.2 45.8a34.7 34.7 0 0 1-19 18.8l-1.7-6c-.7-3-1.7-5.8-3.1-8.5-5.6-10.3-12.8-19.5-19.2-29-1.7-2.2-3.8-5.7-6.7-6.6-3.2-.6-5 2.6-6.7 4.8-3.4 5-7.5 9.5-11.2 14.3-2-2.3-4.2-4.2-5.6-7-4.5-11-5.1-23.9-5.4-35.7 0-1.8-.8-2.5-2.1-3.6-6.5.3-13 4.3-18.7 7.2-4 1.7-7.3 4.3-10.9 6.9a245.9 245.9 0 0 0-26.3 21.7c-3.5-7.5-5.9-15-7-23.1-.2-2.1-2.3-3.3-4-2-1 .7-.8 2.8-1 3.9-5.2 1-10.1 2.2-15 3.8-5.8.3-10.3 2.9-15.5 4.9-9.4 3.7-18.4 8.3-27.5 12.6 3-9.6 8.4-17.7 14.3-25.8A308 308 0 0 1 512 248c1.2-1.4 3.7-4.2 1.8-5.8-1.6-1.7-3.4-.4-4.8.8a300.3 300.3 0 0 0-33.2 39.1c-6.2 2-12.3 5.5-18 8.7a390.3 390.3 0 0 0-27.8 17.6c2.5-7.7 6-15 9.2-22.4.9-2.5.1-4-2-5.3-3.6 0-7.2 2.5-10.2 4.2a361.8 361.8 0 0 0-49.6 38.6c-2-11.7-4.2-25.6-1-37.2a56.2 56.2 0 0 1 17.8-27.1 145.2 145.2 0 0 1 35-22.2 237 237 0 0 1 38.9-13.6c21.8-6 45.3-8.3 68-10ZM355.3 240.2c-4.7 6.5-8.8 13.5-12.5 20.6a86.2 86.2 0 0 0-10.2 36.2c0 6.6 0 13 3.3 18.9-3.8 10-3.8 20-4.4 30.5a51.8 51.8 0 0 1-20.2-40.4 66.9 66.9 0 0 1 12.2-36.5 102.6 102.6 0 0 1 31.8-29.3ZM372 280.8c-3.5 10.3-2.7 20.4-2 31a155.1 155.1 0 0 0-17.3 18.8c-5 6.5-10.5 12.6-15.4 19.1.4-11.4 0-22.2 4.5-32.9a91.1 91.1 0 0 1 30.2-36ZM309 423c-1.5 6.8-2 13.7-3 20.5 0 2-1.8 2.4-3.1 3.4a63 63 0 0 0-18.5 19.5c-9.6 15.1-14.8 32.4-16.2 50.1a47.2 47.2 0 0 1-9.7-27.5c-1.3-29.9 20.8-60.1 50.5-66ZM721.4 582.8c5.8.9 11.5 2 17.4 2a60 60 0 0 1-30.9 18.9c3.6-4.9 7.2-9.4 10-14.8 1.1-2 2.2-4.2 3.5-6.1ZM737 599.2c10.1-.2 22 1.4 30.4 7.4A31.5 31.5 0 0 1 780 629a95.6 95.6 0 0 1-5.3 40 84.5 84.5 0 0 0-76.7-53.3c1.5-1.6 3-4.6 5-5.5 9.6-1 18.4-4.7 26.5-9.7 2.4-1.6 4.8-1.2 7.5-1.3Z"/></g></g><g transform="translate(-161 -83)"></g></g></svg>